<mxfile host="app.diagrams.net" modified="2023-11-22T16:28:03.054Z" agent="Mozilla/5.0 (Windows NT 10.0; Win64; x64) AppleWebKit/537.36 (KHTML, like Gecko) Chrome/119.0.0.0 Safari/537.36" etag="avrcTBDbp6hSmTPbf8tm" version="22.1.3" type="device" pages="2">
  <diagram id="C5RBs43oDa-KdzZeNtuy" name="bai 1">
    <mxGraphModel dx="1120" dy="478" grid="1" gridSize="10" guides="1" tooltips="1" connect="1" arrows="1" fold="1" page="1" pageScale="1" pageWidth="827" pageHeight="1169" math="0" shadow="0">
      <root>
        <mxCell id="WIyWlLk6GJQsqaUBKTNV-0" />
        <mxCell id="WIyWlLk6GJQsqaUBKTNV-1" parent="WIyWlLk6GJQsqaUBKTNV-0" />
        <mxCell id="oqlo-vfNKLsv2BzAepEW-2" value="" style="edgeStyle=orthogonalEdgeStyle;rounded=0;orthogonalLoop=1;jettySize=auto;html=1;" parent="WIyWlLk6GJQsqaUBKTNV-1" source="oqlo-vfNKLsv2BzAepEW-0" target="oqlo-vfNKLsv2BzAepEW-1" edge="1">
          <mxGeometry relative="1" as="geometry" />
        </mxCell>
        <mxCell id="oqlo-vfNKLsv2BzAepEW-0" value="start" style="ellipse;whiteSpace=wrap;html=1;" parent="WIyWlLk6GJQsqaUBKTNV-1" vertex="1">
          <mxGeometry x="320" y="40" width="120" height="80" as="geometry" />
        </mxCell>
        <mxCell id="oqlo-vfNKLsv2BzAepEW-4" value="" style="edgeStyle=orthogonalEdgeStyle;rounded=0;orthogonalLoop=1;jettySize=auto;html=1;" parent="WIyWlLk6GJQsqaUBKTNV-1" source="oqlo-vfNKLsv2BzAepEW-1" target="oqlo-vfNKLsv2BzAepEW-3" edge="1">
          <mxGeometry relative="1" as="geometry" />
        </mxCell>
        <mxCell id="oqlo-vfNKLsv2BzAepEW-1" value="numbers[100]&lt;br&gt;" style="shape=parallelogram;perimeter=parallelogramPerimeter;whiteSpace=wrap;html=1;fixedSize=1;" parent="WIyWlLk6GJQsqaUBKTNV-1" vertex="1">
          <mxGeometry x="320" y="160" width="120" height="60" as="geometry" />
        </mxCell>
        <mxCell id="oqlo-vfNKLsv2BzAepEW-6" value="" style="edgeStyle=orthogonalEdgeStyle;rounded=0;orthogonalLoop=1;jettySize=auto;html=1;" parent="WIyWlLk6GJQsqaUBKTNV-1" source="oqlo-vfNKLsv2BzAepEW-3" target="oqlo-vfNKLsv2BzAepEW-5" edge="1">
          <mxGeometry relative="1" as="geometry" />
        </mxCell>
        <mxCell id="oqlo-vfNKLsv2BzAepEW-3" value="sumNumbers,isPrime,min,max&lt;br&gt;findNumber,cntNumber,&lt;br&gt;addIndex,addValue&lt;br&gt;currentIndex=0" style="shape=parallelogram;perimeter=parallelogramPerimeter;whiteSpace=wrap;html=1;fixedSize=1;" parent="WIyWlLk6GJQsqaUBKTNV-1" vertex="1">
          <mxGeometry x="273.75" y="300" width="212.5" height="60" as="geometry" />
        </mxCell>
        <mxCell id="oqlo-vfNKLsv2BzAepEW-8" value="" style="edgeStyle=orthogonalEdgeStyle;rounded=0;orthogonalLoop=1;jettySize=auto;html=1;" parent="WIyWlLk6GJQsqaUBKTNV-1" source="oqlo-vfNKLsv2BzAepEW-5" target="oqlo-vfNKLsv2BzAepEW-7" edge="1">
          <mxGeometry relative="1" as="geometry" />
        </mxCell>
        <mxCell id="oqlo-vfNKLsv2BzAepEW-5" value="output MENU" style="shape=parallelogram;perimeter=parallelogramPerimeter;whiteSpace=wrap;html=1;fixedSize=1;" parent="WIyWlLk6GJQsqaUBKTNV-1" vertex="1">
          <mxGeometry x="320" y="400" width="120" height="60" as="geometry" />
        </mxCell>
        <mxCell id="oqlo-vfNKLsv2BzAepEW-10" value="" style="edgeStyle=orthogonalEdgeStyle;rounded=0;orthogonalLoop=1;jettySize=auto;html=1;" parent="WIyWlLk6GJQsqaUBKTNV-1" source="oqlo-vfNKLsv2BzAepEW-7" target="oqlo-vfNKLsv2BzAepEW-9" edge="1">
          <mxGeometry relative="1" as="geometry" />
        </mxCell>
        <mxCell id="oqlo-vfNKLsv2BzAepEW-7" value="choice" style="shape=parallelogram;perimeter=parallelogramPerimeter;whiteSpace=wrap;html=1;fixedSize=1;" parent="WIyWlLk6GJQsqaUBKTNV-1" vertex="1">
          <mxGeometry x="320" y="500" width="120" height="60" as="geometry" />
        </mxCell>
        <mxCell id="oqlo-vfNKLsv2BzAepEW-12" value="" style="edgeStyle=orthogonalEdgeStyle;rounded=0;orthogonalLoop=1;jettySize=auto;html=1;" parent="WIyWlLk6GJQsqaUBKTNV-1" source="oqlo-vfNKLsv2BzAepEW-9" target="oqlo-vfNKLsv2BzAepEW-11" edge="1">
          <mxGeometry relative="1" as="geometry" />
        </mxCell>
        <mxCell id="oqlo-vfNKLsv2BzAepEW-24" style="edgeStyle=orthogonalEdgeStyle;rounded=0;orthogonalLoop=1;jettySize=auto;html=1;entryX=0.5;entryY=0;entryDx=0;entryDy=0;" parent="WIyWlLk6GJQsqaUBKTNV-1" source="oqlo-vfNKLsv2BzAepEW-9" target="oqlo-vfNKLsv2BzAepEW-23" edge="1">
          <mxGeometry relative="1" as="geometry" />
        </mxCell>
        <mxCell id="oqlo-vfNKLsv2BzAepEW-9" value="choice==1" style="rhombus;whiteSpace=wrap;html=1;" parent="WIyWlLk6GJQsqaUBKTNV-1" vertex="1">
          <mxGeometry x="340" y="610" width="80" height="80" as="geometry" />
        </mxCell>
        <mxCell id="oqlo-vfNKLsv2BzAepEW-17" value="" style="edgeStyle=orthogonalEdgeStyle;rounded=0;orthogonalLoop=1;jettySize=auto;html=1;" parent="WIyWlLk6GJQsqaUBKTNV-1" source="oqlo-vfNKLsv2BzAepEW-11" target="oqlo-vfNKLsv2BzAepEW-16" edge="1">
          <mxGeometry relative="1" as="geometry" />
        </mxCell>
        <mxCell id="oqlo-vfNKLsv2BzAepEW-11" value="i,n=0" style="shape=parallelogram;perimeter=parallelogramPerimeter;whiteSpace=wrap;html=1;fixedSize=1;" parent="WIyWlLk6GJQsqaUBKTNV-1" vertex="1">
          <mxGeometry x="460" y="620" width="120" height="60" as="geometry" />
        </mxCell>
        <mxCell id="oqlo-vfNKLsv2BzAepEW-15" value="true" style="text;html=1;align=center;verticalAlign=middle;resizable=0;points=[];autosize=1;strokeColor=none;fillColor=none;" parent="WIyWlLk6GJQsqaUBKTNV-1" vertex="1">
          <mxGeometry x="420" y="620" width="40" height="30" as="geometry" />
        </mxCell>
        <mxCell id="oqlo-vfNKLsv2BzAepEW-19" value="" style="edgeStyle=orthogonalEdgeStyle;rounded=0;orthogonalLoop=1;jettySize=auto;html=1;" parent="WIyWlLk6GJQsqaUBKTNV-1" source="oqlo-vfNKLsv2BzAepEW-16" target="oqlo-vfNKLsv2BzAepEW-18" edge="1">
          <mxGeometry relative="1" as="geometry" />
        </mxCell>
        <mxCell id="oqlo-vfNKLsv2BzAepEW-33" style="edgeStyle=orthogonalEdgeStyle;rounded=0;orthogonalLoop=1;jettySize=auto;html=1;exitX=0.5;exitY=1;exitDx=0;exitDy=0;" parent="WIyWlLk6GJQsqaUBKTNV-1" source="oqlo-vfNKLsv2BzAepEW-16" edge="1">
          <mxGeometry relative="1" as="geometry">
            <mxPoint x="1320" y="750" as="targetPoint" />
            <mxPoint x="700" y="720" as="sourcePoint" />
            <Array as="points">
              <mxPoint x="700" y="750" />
            </Array>
          </mxGeometry>
        </mxCell>
        <mxCell id="oqlo-vfNKLsv2BzAepEW-16" value="i&amp;lt;n" style="rhombus;whiteSpace=wrap;html=1;" parent="WIyWlLk6GJQsqaUBKTNV-1" vertex="1">
          <mxGeometry x="660" y="610" width="80" height="80" as="geometry" />
        </mxCell>
        <mxCell id="oqlo-vfNKLsv2BzAepEW-21" value="" style="edgeStyle=orthogonalEdgeStyle;rounded=0;orthogonalLoop=1;jettySize=auto;html=1;" parent="WIyWlLk6GJQsqaUBKTNV-1" source="oqlo-vfNKLsv2BzAepEW-18" target="oqlo-vfNKLsv2BzAepEW-20" edge="1">
          <mxGeometry relative="1" as="geometry" />
        </mxCell>
        <mxCell id="oqlo-vfNKLsv2BzAepEW-18" value="input numbers[currentIndex]" style="shape=parallelogram;perimeter=parallelogramPerimeter;whiteSpace=wrap;html=1;fixedSize=1;" parent="WIyWlLk6GJQsqaUBKTNV-1" vertex="1">
          <mxGeometry x="780" y="620" width="180" height="60" as="geometry" />
        </mxCell>
        <mxCell id="oqlo-vfNKLsv2BzAepEW-22" style="edgeStyle=orthogonalEdgeStyle;rounded=0;orthogonalLoop=1;jettySize=auto;html=1;" parent="WIyWlLk6GJQsqaUBKTNV-1" source="oqlo-vfNKLsv2BzAepEW-20" edge="1">
          <mxGeometry relative="1" as="geometry">
            <mxPoint x="620" y="650" as="targetPoint" />
            <Array as="points">
              <mxPoint x="1030" y="580" />
            </Array>
          </mxGeometry>
        </mxCell>
        <mxCell id="oqlo-vfNKLsv2BzAepEW-20" value="i++&lt;br&gt;currentIndex++" style="rounded=0;whiteSpace=wrap;html=1;" parent="WIyWlLk6GJQsqaUBKTNV-1" vertex="1">
          <mxGeometry x="995" y="620" width="120" height="60" as="geometry" />
        </mxCell>
        <mxCell id="oqlo-vfNKLsv2BzAepEW-26" value="" style="edgeStyle=orthogonalEdgeStyle;rounded=0;orthogonalLoop=1;jettySize=auto;html=1;" parent="WIyWlLk6GJQsqaUBKTNV-1" source="oqlo-vfNKLsv2BzAepEW-23" target="oqlo-vfNKLsv2BzAepEW-25" edge="1">
          <mxGeometry relative="1" as="geometry" />
        </mxCell>
        <mxCell id="oqlo-vfNKLsv2BzAepEW-38" value="" style="edgeStyle=orthogonalEdgeStyle;rounded=0;orthogonalLoop=1;jettySize=auto;html=1;" parent="WIyWlLk6GJQsqaUBKTNV-1" source="oqlo-vfNKLsv2BzAepEW-23" target="oqlo-vfNKLsv2BzAepEW-32" edge="1">
          <mxGeometry relative="1" as="geometry" />
        </mxCell>
        <mxCell id="oqlo-vfNKLsv2BzAepEW-23" value="choice==2" style="rhombus;whiteSpace=wrap;html=1;" parent="WIyWlLk6GJQsqaUBKTNV-1" vertex="1">
          <mxGeometry x="340" y="820" width="80" height="80" as="geometry" />
        </mxCell>
        <mxCell id="oqlo-vfNKLsv2BzAepEW-28" value="" style="edgeStyle=orthogonalEdgeStyle;rounded=0;orthogonalLoop=1;jettySize=auto;html=1;" parent="WIyWlLk6GJQsqaUBKTNV-1" source="oqlo-vfNKLsv2BzAepEW-25" target="oqlo-vfNKLsv2BzAepEW-27" edge="1">
          <mxGeometry relative="1" as="geometry" />
        </mxCell>
        <mxCell id="oqlo-vfNKLsv2BzAepEW-37" style="edgeStyle=orthogonalEdgeStyle;rounded=0;orthogonalLoop=1;jettySize=auto;html=1;" parent="WIyWlLk6GJQsqaUBKTNV-1" source="oqlo-vfNKLsv2BzAepEW-25" edge="1">
          <mxGeometry relative="1" as="geometry">
            <mxPoint x="1320" y="940" as="targetPoint" />
            <Array as="points">
              <mxPoint x="525" y="940" />
              <mxPoint x="525" y="940" />
            </Array>
          </mxGeometry>
        </mxCell>
        <mxCell id="oqlo-vfNKLsv2BzAepEW-25" value="i&amp;lt;currentIndex" style="rhombus;whiteSpace=wrap;html=1;" parent="WIyWlLk6GJQsqaUBKTNV-1" vertex="1">
          <mxGeometry x="470" y="820" width="110" height="80" as="geometry" />
        </mxCell>
        <mxCell id="oqlo-vfNKLsv2BzAepEW-30" value="" style="edgeStyle=orthogonalEdgeStyle;rounded=0;orthogonalLoop=1;jettySize=auto;html=1;" parent="WIyWlLk6GJQsqaUBKTNV-1" source="oqlo-vfNKLsv2BzAepEW-27" target="oqlo-vfNKLsv2BzAepEW-29" edge="1">
          <mxGeometry relative="1" as="geometry" />
        </mxCell>
        <mxCell id="oqlo-vfNKLsv2BzAepEW-27" value="numbers[i]" style="shape=parallelogram;perimeter=parallelogramPerimeter;whiteSpace=wrap;html=1;fixedSize=1;" parent="WIyWlLk6GJQsqaUBKTNV-1" vertex="1">
          <mxGeometry x="620" y="830" width="120" height="60" as="geometry" />
        </mxCell>
        <mxCell id="oqlo-vfNKLsv2BzAepEW-31" style="edgeStyle=orthogonalEdgeStyle;rounded=0;orthogonalLoop=1;jettySize=auto;html=1;exitX=0.25;exitY=0;exitDx=0;exitDy=0;" parent="WIyWlLk6GJQsqaUBKTNV-1" source="oqlo-vfNKLsv2BzAepEW-29" edge="1">
          <mxGeometry relative="1" as="geometry">
            <mxPoint x="440" y="860" as="targetPoint" />
            <mxPoint x="830" y="800" as="sourcePoint" />
            <Array as="points">
              <mxPoint x="830" y="800" />
              <mxPoint x="440" y="800" />
            </Array>
          </mxGeometry>
        </mxCell>
        <mxCell id="oqlo-vfNKLsv2BzAepEW-29" value="i++" style="rounded=0;whiteSpace=wrap;html=1;" parent="WIyWlLk6GJQsqaUBKTNV-1" vertex="1">
          <mxGeometry x="800" y="830" width="120" height="60" as="geometry" />
        </mxCell>
        <mxCell id="oqlo-vfNKLsv2BzAepEW-42" value="" style="edgeStyle=orthogonalEdgeStyle;rounded=0;orthogonalLoop=1;jettySize=auto;html=1;" parent="WIyWlLk6GJQsqaUBKTNV-1" source="oqlo-vfNKLsv2BzAepEW-32" target="oqlo-vfNKLsv2BzAepEW-41" edge="1">
          <mxGeometry relative="1" as="geometry" />
        </mxCell>
        <mxCell id="oqlo-vfNKLsv2BzAepEW-58" style="edgeStyle=orthogonalEdgeStyle;rounded=0;orthogonalLoop=1;jettySize=auto;html=1;entryX=0.5;entryY=0;entryDx=0;entryDy=0;" parent="WIyWlLk6GJQsqaUBKTNV-1" source="oqlo-vfNKLsv2BzAepEW-32" target="oqlo-vfNKLsv2BzAepEW-57" edge="1">
          <mxGeometry relative="1" as="geometry" />
        </mxCell>
        <mxCell id="oqlo-vfNKLsv2BzAepEW-32" value="choice==3" style="rhombus;whiteSpace=wrap;html=1;" parent="WIyWlLk6GJQsqaUBKTNV-1" vertex="1">
          <mxGeometry x="340" y="1070" width="80" height="80" as="geometry" />
        </mxCell>
        <mxCell id="oqlo-vfNKLsv2BzAepEW-34" value="true" style="text;html=1;align=center;verticalAlign=middle;resizable=0;points=[];autosize=1;strokeColor=none;fillColor=none;" parent="WIyWlLk6GJQsqaUBKTNV-1" vertex="1">
          <mxGeometry x="730" y="608" width="40" height="30" as="geometry" />
        </mxCell>
        <mxCell id="oqlo-vfNKLsv2BzAepEW-35" value="false" style="text;html=1;align=center;verticalAlign=middle;resizable=0;points=[];autosize=1;strokeColor=none;fillColor=none;" parent="WIyWlLk6GJQsqaUBKTNV-1" vertex="1">
          <mxGeometry x="700" y="710" width="50" height="30" as="geometry" />
        </mxCell>
        <mxCell id="oqlo-vfNKLsv2BzAepEW-36" value="true" style="text;html=1;align=center;verticalAlign=middle;resizable=0;points=[];autosize=1;strokeColor=none;fillColor=none;" parent="WIyWlLk6GJQsqaUBKTNV-1" vertex="1">
          <mxGeometry x="580" y="830" width="40" height="30" as="geometry" />
        </mxCell>
        <mxCell id="oqlo-vfNKLsv2BzAepEW-39" value="false" style="text;html=1;align=center;verticalAlign=middle;resizable=0;points=[];autosize=1;strokeColor=none;fillColor=none;" parent="WIyWlLk6GJQsqaUBKTNV-1" vertex="1">
          <mxGeometry x="335" y="708" width="50" height="30" as="geometry" />
        </mxCell>
        <mxCell id="oqlo-vfNKLsv2BzAepEW-40" value="false" style="text;html=1;align=center;verticalAlign=middle;resizable=0;points=[];autosize=1;strokeColor=none;fillColor=none;" parent="WIyWlLk6GJQsqaUBKTNV-1" vertex="1">
          <mxGeometry x="325" y="948" width="50" height="30" as="geometry" />
        </mxCell>
        <mxCell id="oqlo-vfNKLsv2BzAepEW-44" value="" style="edgeStyle=orthogonalEdgeStyle;rounded=0;orthogonalLoop=1;jettySize=auto;html=1;" parent="WIyWlLk6GJQsqaUBKTNV-1" source="oqlo-vfNKLsv2BzAepEW-41" target="oqlo-vfNKLsv2BzAepEW-43" edge="1">
          <mxGeometry relative="1" as="geometry" />
        </mxCell>
        <mxCell id="oqlo-vfNKLsv2BzAepEW-55" style="edgeStyle=orthogonalEdgeStyle;rounded=0;orthogonalLoop=1;jettySize=auto;html=1;" parent="WIyWlLk6GJQsqaUBKTNV-1" source="oqlo-vfNKLsv2BzAepEW-41" edge="1">
          <mxGeometry relative="1" as="geometry">
            <mxPoint x="380" y="260" as="targetPoint" />
            <Array as="points">
              <mxPoint x="548" y="1200" />
              <mxPoint x="1320" y="1200" />
              <mxPoint x="1320" y="260" />
            </Array>
          </mxGeometry>
        </mxCell>
        <mxCell id="oqlo-vfNKLsv2BzAepEW-41" value="i&amp;lt;currentIndex" style="rhombus;whiteSpace=wrap;html=1;" parent="WIyWlLk6GJQsqaUBKTNV-1" vertex="1">
          <mxGeometry x="490" y="1070" width="115" height="80" as="geometry" />
        </mxCell>
        <mxCell id="oqlo-vfNKLsv2BzAepEW-48" value="" style="edgeStyle=orthogonalEdgeStyle;rounded=0;orthogonalLoop=1;jettySize=auto;html=1;" parent="WIyWlLk6GJQsqaUBKTNV-1" source="oqlo-vfNKLsv2BzAepEW-43" target="oqlo-vfNKLsv2BzAepEW-47" edge="1">
          <mxGeometry relative="1" as="geometry" />
        </mxCell>
        <mxCell id="oqlo-vfNKLsv2BzAepEW-53" style="edgeStyle=orthogonalEdgeStyle;rounded=0;orthogonalLoop=1;jettySize=auto;html=1;" parent="WIyWlLk6GJQsqaUBKTNV-1" source="oqlo-vfNKLsv2BzAepEW-43" edge="1">
          <mxGeometry relative="1" as="geometry">
            <mxPoint x="710" y="1020" as="targetPoint" />
          </mxGeometry>
        </mxCell>
        <mxCell id="oqlo-vfNKLsv2BzAepEW-43" value="numbers[i]%2==0" style="rhombus;whiteSpace=wrap;html=1;" parent="WIyWlLk6GJQsqaUBKTNV-1" vertex="1">
          <mxGeometry x="650" y="1070" width="120" height="80" as="geometry" />
        </mxCell>
        <mxCell id="oqlo-vfNKLsv2BzAepEW-45" value="true" style="text;html=1;align=center;verticalAlign=middle;resizable=0;points=[];autosize=1;strokeColor=none;fillColor=none;" parent="WIyWlLk6GJQsqaUBKTNV-1" vertex="1">
          <mxGeometry x="605" y="1110" width="40" height="30" as="geometry" />
        </mxCell>
        <mxCell id="oqlo-vfNKLsv2BzAepEW-46" value="true" style="text;html=1;align=center;verticalAlign=middle;resizable=0;points=[];autosize=1;strokeColor=none;fillColor=none;" parent="WIyWlLk6GJQsqaUBKTNV-1" vertex="1">
          <mxGeometry x="430" y="1110" width="40" height="30" as="geometry" />
        </mxCell>
        <mxCell id="oqlo-vfNKLsv2BzAepEW-51" value="" style="edgeStyle=orthogonalEdgeStyle;rounded=0;orthogonalLoop=1;jettySize=auto;html=1;" parent="WIyWlLk6GJQsqaUBKTNV-1" source="oqlo-vfNKLsv2BzAepEW-47" target="oqlo-vfNKLsv2BzAepEW-50" edge="1">
          <mxGeometry relative="1" as="geometry" />
        </mxCell>
        <mxCell id="oqlo-vfNKLsv2BzAepEW-47" value="numbers[i]" style="shape=parallelogram;perimeter=parallelogramPerimeter;whiteSpace=wrap;html=1;fixedSize=1;" parent="WIyWlLk6GJQsqaUBKTNV-1" vertex="1">
          <mxGeometry x="800" y="1080" width="120" height="60" as="geometry" />
        </mxCell>
        <mxCell id="oqlo-vfNKLsv2BzAepEW-52" style="edgeStyle=orthogonalEdgeStyle;rounded=0;orthogonalLoop=1;jettySize=auto;html=1;" parent="WIyWlLk6GJQsqaUBKTNV-1" source="oqlo-vfNKLsv2BzAepEW-50" target="oqlo-vfNKLsv2BzAepEW-46" edge="1">
          <mxGeometry relative="1" as="geometry">
            <mxPoint x="450" y="1030" as="targetPoint" />
            <Array as="points">
              <mxPoint x="1020" y="1020" />
              <mxPoint x="450" y="1020" />
            </Array>
          </mxGeometry>
        </mxCell>
        <mxCell id="oqlo-vfNKLsv2BzAepEW-50" value="i++" style="rounded=0;whiteSpace=wrap;html=1;" parent="WIyWlLk6GJQsqaUBKTNV-1" vertex="1">
          <mxGeometry x="960" y="1080" width="120" height="60" as="geometry" />
        </mxCell>
        <mxCell id="oqlo-vfNKLsv2BzAepEW-54" value="false" style="text;html=1;align=center;verticalAlign=middle;resizable=0;points=[];autosize=1;strokeColor=none;fillColor=none;" parent="WIyWlLk6GJQsqaUBKTNV-1" vertex="1">
          <mxGeometry x="700" y="1040" width="50" height="30" as="geometry" />
        </mxCell>
        <mxCell id="oqlo-vfNKLsv2BzAepEW-56" value="false" style="text;html=1;align=center;verticalAlign=middle;resizable=0;points=[];autosize=1;strokeColor=none;fillColor=none;" parent="WIyWlLk6GJQsqaUBKTNV-1" vertex="1">
          <mxGeometry x="505" y="1158" width="50" height="30" as="geometry" />
        </mxCell>
        <mxCell id="oqlo-vfNKLsv2BzAepEW-60" value="" style="edgeStyle=orthogonalEdgeStyle;rounded=0;orthogonalLoop=1;jettySize=auto;html=1;" parent="WIyWlLk6GJQsqaUBKTNV-1" source="oqlo-vfNKLsv2BzAepEW-57" target="oqlo-vfNKLsv2BzAepEW-59" edge="1">
          <mxGeometry relative="1" as="geometry" />
        </mxCell>
        <mxCell id="oqlo-vfNKLsv2BzAepEW-113" style="edgeStyle=orthogonalEdgeStyle;rounded=0;orthogonalLoop=1;jettySize=auto;html=1;entryX=0.5;entryY=0;entryDx=0;entryDy=0;" parent="WIyWlLk6GJQsqaUBKTNV-1" source="oqlo-vfNKLsv2BzAepEW-57" target="oqlo-vfNKLsv2BzAepEW-112" edge="1">
          <mxGeometry relative="1" as="geometry" />
        </mxCell>
        <mxCell id="oqlo-vfNKLsv2BzAepEW-57" value="choice==4" style="rhombus;whiteSpace=wrap;html=1;" parent="WIyWlLk6GJQsqaUBKTNV-1" vertex="1">
          <mxGeometry x="340" y="1300" width="80" height="80" as="geometry" />
        </mxCell>
        <mxCell id="oqlo-vfNKLsv2BzAepEW-62" value="" style="edgeStyle=orthogonalEdgeStyle;rounded=0;orthogonalLoop=1;jettySize=auto;html=1;" parent="WIyWlLk6GJQsqaUBKTNV-1" source="oqlo-vfNKLsv2BzAepEW-59" target="oqlo-vfNKLsv2BzAepEW-61" edge="1">
          <mxGeometry relative="1" as="geometry" />
        </mxCell>
        <mxCell id="oqlo-vfNKLsv2BzAepEW-59" value="max=min=numbers[0]" style="rounded=0;whiteSpace=wrap;html=1;" parent="WIyWlLk6GJQsqaUBKTNV-1" vertex="1">
          <mxGeometry x="470" y="1310" width="130" height="60" as="geometry" />
        </mxCell>
        <mxCell id="oqlo-vfNKLsv2BzAepEW-64" value="" style="edgeStyle=orthogonalEdgeStyle;rounded=0;orthogonalLoop=1;jettySize=auto;html=1;" parent="WIyWlLk6GJQsqaUBKTNV-1" source="oqlo-vfNKLsv2BzAepEW-61" target="oqlo-vfNKLsv2BzAepEW-63" edge="1">
          <mxGeometry relative="1" as="geometry" />
        </mxCell>
        <mxCell id="oqlo-vfNKLsv2BzAepEW-109" style="edgeStyle=orthogonalEdgeStyle;rounded=0;orthogonalLoop=1;jettySize=auto;html=1;entryX=0.5;entryY=0;entryDx=0;entryDy=0;" parent="WIyWlLk6GJQsqaUBKTNV-1" source="oqlo-vfNKLsv2BzAepEW-61" target="oqlo-vfNKLsv2BzAepEW-108" edge="1">
          <mxGeometry relative="1" as="geometry" />
        </mxCell>
        <mxCell id="oqlo-vfNKLsv2BzAepEW-61" value="i&amp;lt;currentIndex" style="rhombus;whiteSpace=wrap;html=1;" parent="WIyWlLk6GJQsqaUBKTNV-1" vertex="1">
          <mxGeometry x="690" y="1300" width="110" height="80" as="geometry" />
        </mxCell>
        <mxCell id="oqlo-vfNKLsv2BzAepEW-92" value="" style="edgeStyle=orthogonalEdgeStyle;rounded=0;orthogonalLoop=1;jettySize=auto;html=1;" parent="WIyWlLk6GJQsqaUBKTNV-1" source="oqlo-vfNKLsv2BzAepEW-63" target="oqlo-vfNKLsv2BzAepEW-91" edge="1">
          <mxGeometry relative="1" as="geometry" />
        </mxCell>
        <mxCell id="oqlo-vfNKLsv2BzAepEW-98" value="" style="edgeStyle=orthogonalEdgeStyle;rounded=0;orthogonalLoop=1;jettySize=auto;html=1;" parent="WIyWlLk6GJQsqaUBKTNV-1" source="oqlo-vfNKLsv2BzAepEW-63" target="oqlo-vfNKLsv2BzAepEW-97" edge="1">
          <mxGeometry relative="1" as="geometry" />
        </mxCell>
        <mxCell id="oqlo-vfNKLsv2BzAepEW-63" value="min&amp;gt;numbers[i]" style="rhombus;whiteSpace=wrap;html=1;" parent="WIyWlLk6GJQsqaUBKTNV-1" vertex="1">
          <mxGeometry x="850" y="1300" width="110" height="80" as="geometry" />
        </mxCell>
        <mxCell id="oqlo-vfNKLsv2BzAepEW-65" value="true" style="text;html=1;align=center;verticalAlign=middle;resizable=0;points=[];autosize=1;strokeColor=none;fillColor=none;" parent="WIyWlLk6GJQsqaUBKTNV-1" vertex="1">
          <mxGeometry x="800" y="1310" width="40" height="30" as="geometry" />
        </mxCell>
        <mxCell id="oqlo-vfNKLsv2BzAepEW-95" value="" style="edgeStyle=orthogonalEdgeStyle;rounded=0;orthogonalLoop=1;jettySize=auto;html=1;" parent="WIyWlLk6GJQsqaUBKTNV-1" source="oqlo-vfNKLsv2BzAepEW-91" target="oqlo-vfNKLsv2BzAepEW-94" edge="1">
          <mxGeometry relative="1" as="geometry" />
        </mxCell>
        <mxCell id="oqlo-vfNKLsv2BzAepEW-100" value="" style="edgeStyle=orthogonalEdgeStyle;rounded=0;orthogonalLoop=1;jettySize=auto;html=1;" parent="WIyWlLk6GJQsqaUBKTNV-1" source="oqlo-vfNKLsv2BzAepEW-91" target="oqlo-vfNKLsv2BzAepEW-99" edge="1">
          <mxGeometry relative="1" as="geometry" />
        </mxCell>
        <mxCell id="oqlo-vfNKLsv2BzAepEW-91" value="max&amp;lt;numbers[i]" style="rhombus;whiteSpace=wrap;html=1;" parent="WIyWlLk6GJQsqaUBKTNV-1" vertex="1">
          <mxGeometry x="1010" y="1300" width="110" height="80" as="geometry" />
        </mxCell>
        <mxCell id="oqlo-vfNKLsv2BzAepEW-93" value="true" style="text;html=1;align=center;verticalAlign=middle;resizable=0;points=[];autosize=1;strokeColor=none;fillColor=none;" parent="WIyWlLk6GJQsqaUBKTNV-1" vertex="1">
          <mxGeometry x="960" y="1310" width="40" height="30" as="geometry" />
        </mxCell>
        <mxCell id="oqlo-vfNKLsv2BzAepEW-103" style="edgeStyle=orthogonalEdgeStyle;rounded=0;orthogonalLoop=1;jettySize=auto;html=1;" parent="WIyWlLk6GJQsqaUBKTNV-1" source="oqlo-vfNKLsv2BzAepEW-94" edge="1">
          <mxGeometry relative="1" as="geometry">
            <mxPoint x="640" y="1340" as="targetPoint" />
            <Array as="points">
              <mxPoint x="1220" y="1240" />
              <mxPoint x="640" y="1240" />
            </Array>
          </mxGeometry>
        </mxCell>
        <mxCell id="oqlo-vfNKLsv2BzAepEW-94" value="i++" style="rounded=0;whiteSpace=wrap;html=1;" parent="WIyWlLk6GJQsqaUBKTNV-1" vertex="1">
          <mxGeometry x="1170" y="1310" width="120" height="60" as="geometry" />
        </mxCell>
        <mxCell id="oqlo-vfNKLsv2BzAepEW-96" value="true" style="text;html=1;align=center;verticalAlign=middle;resizable=0;points=[];autosize=1;strokeColor=none;fillColor=none;" parent="WIyWlLk6GJQsqaUBKTNV-1" vertex="1">
          <mxGeometry x="1125" y="1350" width="40" height="30" as="geometry" />
        </mxCell>
        <mxCell id="oqlo-vfNKLsv2BzAepEW-101" style="edgeStyle=orthogonalEdgeStyle;rounded=0;orthogonalLoop=1;jettySize=auto;html=1;entryX=0.5;entryY=1;entryDx=0;entryDy=0;" parent="WIyWlLk6GJQsqaUBKTNV-1" source="oqlo-vfNKLsv2BzAepEW-97" target="oqlo-vfNKLsv2BzAepEW-94" edge="1">
          <mxGeometry relative="1" as="geometry">
            <mxPoint x="1220" y="1680" as="targetPoint" />
            <Array as="points">
              <mxPoint x="905" y="1560" />
              <mxPoint x="1230" y="1560" />
            </Array>
          </mxGeometry>
        </mxCell>
        <mxCell id="oqlo-vfNKLsv2BzAepEW-97" value="min=numbers[i]" style="rounded=0;whiteSpace=wrap;html=1;" parent="WIyWlLk6GJQsqaUBKTNV-1" vertex="1">
          <mxGeometry x="845" y="1450" width="120" height="60" as="geometry" />
        </mxCell>
        <mxCell id="oqlo-vfNKLsv2BzAepEW-102" style="edgeStyle=orthogonalEdgeStyle;rounded=0;orthogonalLoop=1;jettySize=auto;html=1;" parent="WIyWlLk6GJQsqaUBKTNV-1" source="oqlo-vfNKLsv2BzAepEW-99" edge="1">
          <mxGeometry relative="1" as="geometry">
            <mxPoint x="1065" y="1560" as="targetPoint" />
          </mxGeometry>
        </mxCell>
        <mxCell id="oqlo-vfNKLsv2BzAepEW-99" value="max=numbers[i]" style="rounded=0;whiteSpace=wrap;html=1;" parent="WIyWlLk6GJQsqaUBKTNV-1" vertex="1">
          <mxGeometry x="1005" y="1450" width="120" height="60" as="geometry" />
        </mxCell>
        <mxCell id="oqlo-vfNKLsv2BzAepEW-105" value="false" style="text;html=1;align=center;verticalAlign=middle;resizable=0;points=[];autosize=1;strokeColor=none;fillColor=none;" parent="WIyWlLk6GJQsqaUBKTNV-1" vertex="1">
          <mxGeometry x="900" y="1398" width="50" height="30" as="geometry" />
        </mxCell>
        <mxCell id="oqlo-vfNKLsv2BzAepEW-106" value="false" style="text;html=1;align=center;verticalAlign=middle;resizable=0;points=[];autosize=1;strokeColor=none;fillColor=none;" parent="WIyWlLk6GJQsqaUBKTNV-1" vertex="1">
          <mxGeometry x="1020" y="1398" width="50" height="30" as="geometry" />
        </mxCell>
        <mxCell id="oqlo-vfNKLsv2BzAepEW-111" style="edgeStyle=orthogonalEdgeStyle;rounded=0;orthogonalLoop=1;jettySize=auto;html=1;" parent="WIyWlLk6GJQsqaUBKTNV-1" source="oqlo-vfNKLsv2BzAepEW-108" edge="1">
          <mxGeometry relative="1" as="geometry">
            <mxPoint x="1320" y="1200" as="targetPoint" />
            <Array as="points">
              <mxPoint x="745" y="1600" />
              <mxPoint x="1320" y="1600" />
            </Array>
          </mxGeometry>
        </mxCell>
        <mxCell id="oqlo-vfNKLsv2BzAepEW-108" value="max&lt;br&gt;min" style="shape=parallelogram;perimeter=parallelogramPerimeter;whiteSpace=wrap;html=1;fixedSize=1;" parent="WIyWlLk6GJQsqaUBKTNV-1" vertex="1">
          <mxGeometry x="685" y="1450" width="120" height="60" as="geometry" />
        </mxCell>
        <mxCell id="oqlo-vfNKLsv2BzAepEW-110" value="false" style="text;html=1;align=center;verticalAlign=middle;resizable=0;points=[];autosize=1;strokeColor=none;fillColor=none;" parent="WIyWlLk6GJQsqaUBKTNV-1" vertex="1">
          <mxGeometry x="740" y="1398" width="50" height="30" as="geometry" />
        </mxCell>
        <mxCell id="oqlo-vfNKLsv2BzAepEW-117" value="" style="edgeStyle=orthogonalEdgeStyle;rounded=0;orthogonalLoop=1;jettySize=auto;html=1;" parent="WIyWlLk6GJQsqaUBKTNV-1" source="oqlo-vfNKLsv2BzAepEW-112" target="oqlo-vfNKLsv2BzAepEW-116" edge="1">
          <mxGeometry relative="1" as="geometry" />
        </mxCell>
        <mxCell id="oqlo-vfNKLsv2BzAepEW-147" style="edgeStyle=orthogonalEdgeStyle;rounded=0;orthogonalLoop=1;jettySize=auto;html=1;entryX=0.5;entryY=0;entryDx=0;entryDy=0;" parent="WIyWlLk6GJQsqaUBKTNV-1" source="oqlo-vfNKLsv2BzAepEW-112" target="oqlo-vfNKLsv2BzAepEW-146" edge="1">
          <mxGeometry relative="1" as="geometry" />
        </mxCell>
        <mxCell id="oqlo-vfNKLsv2BzAepEW-112" value="choice==5" style="rhombus;whiteSpace=wrap;html=1;" parent="WIyWlLk6GJQsqaUBKTNV-1" vertex="1">
          <mxGeometry x="340" y="1798" width="80" height="80" as="geometry" />
        </mxCell>
        <mxCell id="oqlo-vfNKLsv2BzAepEW-114" value="false" style="text;html=1;align=center;verticalAlign=middle;resizable=0;points=[];autosize=1;strokeColor=none;fillColor=none;" parent="WIyWlLk6GJQsqaUBKTNV-1" vertex="1">
          <mxGeometry x="325" y="1208" width="50" height="30" as="geometry" />
        </mxCell>
        <mxCell id="oqlo-vfNKLsv2BzAepEW-115" value="false" style="text;html=1;align=center;verticalAlign=middle;resizable=0;points=[];autosize=1;strokeColor=none;fillColor=none;" parent="WIyWlLk6GJQsqaUBKTNV-1" vertex="1">
          <mxGeometry x="325" y="1570" width="50" height="30" as="geometry" />
        </mxCell>
        <mxCell id="oqlo-vfNKLsv2BzAepEW-119" value="" style="edgeStyle=orthogonalEdgeStyle;rounded=0;orthogonalLoop=1;jettySize=auto;html=1;" parent="WIyWlLk6GJQsqaUBKTNV-1" source="oqlo-vfNKLsv2BzAepEW-116" target="oqlo-vfNKLsv2BzAepEW-118" edge="1">
          <mxGeometry relative="1" as="geometry" />
        </mxCell>
        <mxCell id="oqlo-vfNKLsv2BzAepEW-116" value="sumNumbers=0&lt;br&gt;i=0" style="rounded=0;whiteSpace=wrap;html=1;" parent="WIyWlLk6GJQsqaUBKTNV-1" vertex="1">
          <mxGeometry x="465" y="1808" width="120" height="60" as="geometry" />
        </mxCell>
        <mxCell id="oqlo-vfNKLsv2BzAepEW-121" value="" style="edgeStyle=orthogonalEdgeStyle;rounded=0;orthogonalLoop=1;jettySize=auto;html=1;" parent="WIyWlLk6GJQsqaUBKTNV-1" source="oqlo-vfNKLsv2BzAepEW-118" target="oqlo-vfNKLsv2BzAepEW-120" edge="1">
          <mxGeometry relative="1" as="geometry" />
        </mxCell>
        <mxCell id="oqlo-vfNKLsv2BzAepEW-133" value="" style="edgeStyle=orthogonalEdgeStyle;rounded=0;orthogonalLoop=1;jettySize=auto;html=1;" parent="WIyWlLk6GJQsqaUBKTNV-1" source="oqlo-vfNKLsv2BzAepEW-118" target="oqlo-vfNKLsv2BzAepEW-132" edge="1">
          <mxGeometry relative="1" as="geometry" />
        </mxCell>
        <mxCell id="oqlo-vfNKLsv2BzAepEW-118" value="i&amp;lt;currentIndex" style="rhombus;whiteSpace=wrap;html=1;" parent="WIyWlLk6GJQsqaUBKTNV-1" vertex="1">
          <mxGeometry x="645" y="1798" width="145" height="80" as="geometry" />
        </mxCell>
        <mxCell id="oqlo-vfNKLsv2BzAepEW-124" value="" style="edgeStyle=orthogonalEdgeStyle;rounded=0;orthogonalLoop=1;jettySize=auto;html=1;" parent="WIyWlLk6GJQsqaUBKTNV-1" source="oqlo-vfNKLsv2BzAepEW-120" target="oqlo-vfNKLsv2BzAepEW-123" edge="1">
          <mxGeometry relative="1" as="geometry" />
        </mxCell>
        <mxCell id="oqlo-vfNKLsv2BzAepEW-120" value="isPrime=0&lt;br&gt;j=0" style="rounded=0;whiteSpace=wrap;html=1;" parent="WIyWlLk6GJQsqaUBKTNV-1" vertex="1">
          <mxGeometry x="850" y="1808" width="120" height="60" as="geometry" />
        </mxCell>
        <mxCell id="oqlo-vfNKLsv2BzAepEW-122" value="true" style="text;html=1;align=center;verticalAlign=middle;resizable=0;points=[];autosize=1;strokeColor=none;fillColor=none;" parent="WIyWlLk6GJQsqaUBKTNV-1" vertex="1">
          <mxGeometry x="800" y="1810" width="40" height="30" as="geometry" />
        </mxCell>
        <mxCell id="oqlo-vfNKLsv2BzAepEW-126" value="" style="edgeStyle=orthogonalEdgeStyle;rounded=0;orthogonalLoop=1;jettySize=auto;html=1;" parent="WIyWlLk6GJQsqaUBKTNV-1" source="oqlo-vfNKLsv2BzAepEW-123" target="oqlo-vfNKLsv2BzAepEW-125" edge="1">
          <mxGeometry relative="1" as="geometry" />
        </mxCell>
        <mxCell id="oqlo-vfNKLsv2BzAepEW-137" value="" style="edgeStyle=orthogonalEdgeStyle;rounded=0;orthogonalLoop=1;jettySize=auto;html=1;" parent="WIyWlLk6GJQsqaUBKTNV-1" source="oqlo-vfNKLsv2BzAepEW-123" target="oqlo-vfNKLsv2BzAepEW-136" edge="1">
          <mxGeometry relative="1" as="geometry" />
        </mxCell>
        <mxCell id="oqlo-vfNKLsv2BzAepEW-123" value="j&amp;lt;=sqrt(numbers[i]" style="rhombus;whiteSpace=wrap;html=1;" parent="WIyWlLk6GJQsqaUBKTNV-1" vertex="1">
          <mxGeometry x="1040" y="1798" width="130" height="80" as="geometry" />
        </mxCell>
        <mxCell id="oqlo-vfNKLsv2BzAepEW-129" value="" style="edgeStyle=orthogonalEdgeStyle;rounded=0;orthogonalLoop=1;jettySize=auto;html=1;" parent="WIyWlLk6GJQsqaUBKTNV-1" source="oqlo-vfNKLsv2BzAepEW-125" target="oqlo-vfNKLsv2BzAepEW-128" edge="1">
          <mxGeometry relative="1" as="geometry" />
        </mxCell>
        <mxCell id="oqlo-vfNKLsv2BzAepEW-125" value="numbers[i]%j==0" style="rhombus;whiteSpace=wrap;html=1;" parent="WIyWlLk6GJQsqaUBKTNV-1" vertex="1">
          <mxGeometry x="1230" y="1798" width="120" height="80" as="geometry" />
        </mxCell>
        <mxCell id="oqlo-vfNKLsv2BzAepEW-127" value="true" style="text;html=1;align=center;verticalAlign=middle;resizable=0;points=[];autosize=1;strokeColor=none;fillColor=none;" parent="WIyWlLk6GJQsqaUBKTNV-1" vertex="1">
          <mxGeometry x="1180" y="1810" width="40" height="30" as="geometry" />
        </mxCell>
        <mxCell id="oqlo-vfNKLsv2BzAepEW-131" style="edgeStyle=orthogonalEdgeStyle;rounded=0;orthogonalLoop=1;jettySize=auto;html=1;" parent="WIyWlLk6GJQsqaUBKTNV-1" source="oqlo-vfNKLsv2BzAepEW-128" edge="1">
          <mxGeometry relative="1" as="geometry">
            <mxPoint x="1000" y="1840" as="targetPoint" />
            <Array as="points">
              <mxPoint x="1460" y="1730" />
            </Array>
          </mxGeometry>
        </mxCell>
        <mxCell id="oqlo-vfNKLsv2BzAepEW-128" value="isPrime++" style="rounded=0;whiteSpace=wrap;html=1;" parent="WIyWlLk6GJQsqaUBKTNV-1" vertex="1">
          <mxGeometry x="1400" y="1808" width="120" height="60" as="geometry" />
        </mxCell>
        <mxCell id="oqlo-vfNKLsv2BzAepEW-130" value="true" style="text;html=1;align=center;verticalAlign=middle;resizable=0;points=[];autosize=1;strokeColor=none;fillColor=none;" parent="WIyWlLk6GJQsqaUBKTNV-1" vertex="1">
          <mxGeometry x="1350" y="1810" width="40" height="30" as="geometry" />
        </mxCell>
        <mxCell id="oqlo-vfNKLsv2BzAepEW-135" style="edgeStyle=orthogonalEdgeStyle;rounded=0;orthogonalLoop=1;jettySize=auto;html=1;" parent="WIyWlLk6GJQsqaUBKTNV-1" source="oqlo-vfNKLsv2BzAepEW-132" edge="1">
          <mxGeometry relative="1" as="geometry">
            <mxPoint x="830" y="1600" as="targetPoint" />
            <Array as="points">
              <mxPoint x="830" y="1724" />
              <mxPoint x="830" y="1724" />
            </Array>
          </mxGeometry>
        </mxCell>
        <mxCell id="oqlo-vfNKLsv2BzAepEW-132" value="sumNumbers" style="shape=parallelogram;perimeter=parallelogramPerimeter;whiteSpace=wrap;html=1;fixedSize=1;" parent="WIyWlLk6GJQsqaUBKTNV-1" vertex="1">
          <mxGeometry x="657.5" y="1694" width="120" height="60" as="geometry" />
        </mxCell>
        <mxCell id="oqlo-vfNKLsv2BzAepEW-134" value="false" style="text;html=1;align=center;verticalAlign=middle;resizable=0;points=[];autosize=1;strokeColor=none;fillColor=none;" parent="WIyWlLk6GJQsqaUBKTNV-1" vertex="1">
          <mxGeometry x="710" y="1768" width="50" height="30" as="geometry" />
        </mxCell>
        <mxCell id="oqlo-vfNKLsv2BzAepEW-139" value="" style="edgeStyle=orthogonalEdgeStyle;rounded=0;orthogonalLoop=1;jettySize=auto;html=1;" parent="WIyWlLk6GJQsqaUBKTNV-1" source="oqlo-vfNKLsv2BzAepEW-136" target="oqlo-vfNKLsv2BzAepEW-138" edge="1">
          <mxGeometry relative="1" as="geometry" />
        </mxCell>
        <mxCell id="oqlo-vfNKLsv2BzAepEW-143" style="edgeStyle=orthogonalEdgeStyle;rounded=0;orthogonalLoop=1;jettySize=auto;html=1;exitX=0;exitY=0.5;exitDx=0;exitDy=0;" parent="WIyWlLk6GJQsqaUBKTNV-1" source="oqlo-vfNKLsv2BzAepEW-136" edge="1">
          <mxGeometry relative="1" as="geometry">
            <mxPoint x="610" y="1838" as="targetPoint" />
            <mxPoint x="1065" y="1958" as="sourcePoint" />
            <Array as="points">
              <mxPoint x="1065" y="1958" />
              <mxPoint x="610" y="1958" />
            </Array>
          </mxGeometry>
        </mxCell>
        <mxCell id="oqlo-vfNKLsv2BzAepEW-136" value="isPrime==0" style="rhombus;whiteSpace=wrap;html=1;" parent="WIyWlLk6GJQsqaUBKTNV-1" vertex="1">
          <mxGeometry x="1065" y="1920" width="80" height="80" as="geometry" />
        </mxCell>
        <mxCell id="oqlo-vfNKLsv2BzAepEW-142" value="" style="edgeStyle=orthogonalEdgeStyle;rounded=0;orthogonalLoop=1;jettySize=auto;html=1;" parent="WIyWlLk6GJQsqaUBKTNV-1" source="oqlo-vfNKLsv2BzAepEW-138" target="oqlo-vfNKLsv2BzAepEW-141" edge="1">
          <mxGeometry relative="1" as="geometry" />
        </mxCell>
        <mxCell id="oqlo-vfNKLsv2BzAepEW-138" value="sumNumbers+=numbers[i]" style="rounded=0;whiteSpace=wrap;html=1;" parent="WIyWlLk6GJQsqaUBKTNV-1" vertex="1">
          <mxGeometry x="1200" y="1930" width="150" height="60" as="geometry" />
        </mxCell>
        <mxCell id="oqlo-vfNKLsv2BzAepEW-140" value="true" style="text;html=1;align=center;verticalAlign=middle;resizable=0;points=[];autosize=1;strokeColor=none;fillColor=none;" parent="WIyWlLk6GJQsqaUBKTNV-1" vertex="1">
          <mxGeometry x="1145" y="1930" width="40" height="30" as="geometry" />
        </mxCell>
        <mxCell id="oqlo-vfNKLsv2BzAepEW-144" style="edgeStyle=orthogonalEdgeStyle;rounded=0;orthogonalLoop=1;jettySize=auto;html=1;" parent="WIyWlLk6GJQsqaUBKTNV-1" source="oqlo-vfNKLsv2BzAepEW-141" edge="1">
          <mxGeometry relative="1" as="geometry">
            <mxPoint x="610" y="1950" as="targetPoint" />
            <Array as="points">
              <mxPoint x="1450" y="2020" />
            </Array>
          </mxGeometry>
        </mxCell>
        <mxCell id="oqlo-vfNKLsv2BzAepEW-141" value="numbers[i]" style="shape=parallelogram;perimeter=parallelogramPerimeter;whiteSpace=wrap;html=1;fixedSize=1;" parent="WIyWlLk6GJQsqaUBKTNV-1" vertex="1">
          <mxGeometry x="1390" y="1930" width="120" height="60" as="geometry" />
        </mxCell>
        <mxCell id="oqlo-vfNKLsv2BzAepEW-145" value="false" style="text;html=1;align=center;verticalAlign=middle;resizable=0;points=[];autosize=1;strokeColor=none;fillColor=none;" parent="WIyWlLk6GJQsqaUBKTNV-1" vertex="1">
          <mxGeometry x="995" y="1928" width="50" height="30" as="geometry" />
        </mxCell>
        <mxCell id="oqlo-vfNKLsv2BzAepEW-150" value="" style="edgeStyle=orthogonalEdgeStyle;rounded=0;orthogonalLoop=1;jettySize=auto;html=1;" parent="WIyWlLk6GJQsqaUBKTNV-1" source="oqlo-vfNKLsv2BzAepEW-146" target="oqlo-vfNKLsv2BzAepEW-149" edge="1">
          <mxGeometry relative="1" as="geometry" />
        </mxCell>
        <mxCell id="oqlo-vfNKLsv2BzAepEW-171" style="edgeStyle=orthogonalEdgeStyle;rounded=0;orthogonalLoop=1;jettySize=auto;html=1;entryX=0.5;entryY=0;entryDx=0;entryDy=0;" parent="WIyWlLk6GJQsqaUBKTNV-1" source="oqlo-vfNKLsv2BzAepEW-146" target="oqlo-vfNKLsv2BzAepEW-170" edge="1">
          <mxGeometry relative="1" as="geometry" />
        </mxCell>
        <mxCell id="oqlo-vfNKLsv2BzAepEW-146" value="choice==6" style="rhombus;whiteSpace=wrap;html=1;" parent="WIyWlLk6GJQsqaUBKTNV-1" vertex="1">
          <mxGeometry x="340" y="2160" width="80" height="80" as="geometry" />
        </mxCell>
        <mxCell id="oqlo-vfNKLsv2BzAepEW-154" value="" style="edgeStyle=orthogonalEdgeStyle;rounded=0;orthogonalLoop=1;jettySize=auto;html=1;" parent="WIyWlLk6GJQsqaUBKTNV-1" source="oqlo-vfNKLsv2BzAepEW-149" target="oqlo-vfNKLsv2BzAepEW-153" edge="1">
          <mxGeometry relative="1" as="geometry" />
        </mxCell>
        <mxCell id="oqlo-vfNKLsv2BzAepEW-149" value="findNumber" style="shape=parallelogram;perimeter=parallelogramPerimeter;whiteSpace=wrap;html=1;fixedSize=1;" parent="WIyWlLk6GJQsqaUBKTNV-1" vertex="1">
          <mxGeometry x="470" y="2170" width="120" height="60" as="geometry" />
        </mxCell>
        <mxCell id="oqlo-vfNKLsv2BzAepEW-151" value="true" style="text;html=1;align=center;verticalAlign=middle;resizable=0;points=[];autosize=1;strokeColor=none;fillColor=none;" parent="WIyWlLk6GJQsqaUBKTNV-1" vertex="1">
          <mxGeometry x="420" y="2200" width="40" height="30" as="geometry" />
        </mxCell>
        <mxCell id="oqlo-vfNKLsv2BzAepEW-152" value="false" style="text;html=1;align=center;verticalAlign=middle;resizable=0;points=[];autosize=1;strokeColor=none;fillColor=none;" parent="WIyWlLk6GJQsqaUBKTNV-1" vertex="1">
          <mxGeometry x="335" y="2068" width="50" height="30" as="geometry" />
        </mxCell>
        <mxCell id="oqlo-vfNKLsv2BzAepEW-156" value="" style="edgeStyle=orthogonalEdgeStyle;rounded=0;orthogonalLoop=1;jettySize=auto;html=1;" parent="WIyWlLk6GJQsqaUBKTNV-1" source="oqlo-vfNKLsv2BzAepEW-153" target="oqlo-vfNKLsv2BzAepEW-155" edge="1">
          <mxGeometry relative="1" as="geometry" />
        </mxCell>
        <mxCell id="oqlo-vfNKLsv2BzAepEW-153" value="cntNumber=0&lt;br&gt;i=0" style="rounded=0;whiteSpace=wrap;html=1;" parent="WIyWlLk6GJQsqaUBKTNV-1" vertex="1">
          <mxGeometry x="640" y="2170" width="120" height="60" as="geometry" />
        </mxCell>
        <mxCell id="oqlo-vfNKLsv2BzAepEW-158" value="" style="edgeStyle=orthogonalEdgeStyle;rounded=0;orthogonalLoop=1;jettySize=auto;html=1;" parent="WIyWlLk6GJQsqaUBKTNV-1" source="oqlo-vfNKLsv2BzAepEW-155" target="oqlo-vfNKLsv2BzAepEW-157" edge="1">
          <mxGeometry relative="1" as="geometry" />
        </mxCell>
        <mxCell id="oqlo-vfNKLsv2BzAepEW-166" value="" style="edgeStyle=orthogonalEdgeStyle;rounded=0;orthogonalLoop=1;jettySize=auto;html=1;" parent="WIyWlLk6GJQsqaUBKTNV-1" source="oqlo-vfNKLsv2BzAepEW-155" target="oqlo-vfNKLsv2BzAepEW-164" edge="1">
          <mxGeometry relative="1" as="geometry" />
        </mxCell>
        <mxCell id="oqlo-vfNKLsv2BzAepEW-155" value="i&amp;lt;currentIndex" style="rhombus;whiteSpace=wrap;html=1;" parent="WIyWlLk6GJQsqaUBKTNV-1" vertex="1">
          <mxGeometry x="827" y="2160" width="120" height="80" as="geometry" />
        </mxCell>
        <mxCell id="oqlo-vfNKLsv2BzAepEW-161" value="" style="edgeStyle=orthogonalEdgeStyle;rounded=0;orthogonalLoop=1;jettySize=auto;html=1;" parent="WIyWlLk6GJQsqaUBKTNV-1" source="oqlo-vfNKLsv2BzAepEW-157" target="oqlo-vfNKLsv2BzAepEW-160" edge="1">
          <mxGeometry relative="1" as="geometry" />
        </mxCell>
        <mxCell id="oqlo-vfNKLsv2BzAepEW-157" value="numbers[i]==findNumber" style="rhombus;whiteSpace=wrap;html=1;" parent="WIyWlLk6GJQsqaUBKTNV-1" vertex="1">
          <mxGeometry x="1005" y="2160" width="175" height="80" as="geometry" />
        </mxCell>
        <mxCell id="oqlo-vfNKLsv2BzAepEW-159" value="true" style="text;html=1;align=center;verticalAlign=middle;resizable=0;points=[];autosize=1;strokeColor=none;fillColor=none;" parent="WIyWlLk6GJQsqaUBKTNV-1" vertex="1">
          <mxGeometry x="950" y="2200" width="40" height="30" as="geometry" />
        </mxCell>
        <mxCell id="oqlo-vfNKLsv2BzAepEW-163" style="edgeStyle=orthogonalEdgeStyle;rounded=0;orthogonalLoop=1;jettySize=auto;html=1;" parent="WIyWlLk6GJQsqaUBKTNV-1" source="oqlo-vfNKLsv2BzAepEW-160" edge="1">
          <mxGeometry relative="1" as="geometry">
            <mxPoint x="800" y="2200" as="targetPoint" />
            <Array as="points">
              <mxPoint x="1310" y="2120" />
            </Array>
          </mxGeometry>
        </mxCell>
        <mxCell id="oqlo-vfNKLsv2BzAepEW-160" value="cntNumber++" style="rounded=0;whiteSpace=wrap;html=1;" parent="WIyWlLk6GJQsqaUBKTNV-1" vertex="1">
          <mxGeometry x="1250" y="2170" width="120" height="60" as="geometry" />
        </mxCell>
        <mxCell id="oqlo-vfNKLsv2BzAepEW-162" value="true" style="text;html=1;align=center;verticalAlign=middle;resizable=0;points=[];autosize=1;strokeColor=none;fillColor=none;" parent="WIyWlLk6GJQsqaUBKTNV-1" vertex="1">
          <mxGeometry x="1190" y="2200" width="40" height="30" as="geometry" />
        </mxCell>
        <mxCell id="oqlo-vfNKLsv2BzAepEW-169" style="edgeStyle=orthogonalEdgeStyle;rounded=0;orthogonalLoop=1;jettySize=auto;html=1;" parent="WIyWlLk6GJQsqaUBKTNV-1" source="oqlo-vfNKLsv2BzAepEW-164" edge="1">
          <mxGeometry relative="1" as="geometry">
            <mxPoint x="380" y="240" as="targetPoint" />
            <Array as="points">
              <mxPoint x="1720" y="2308" />
              <mxPoint x="1720" y="240" />
            </Array>
          </mxGeometry>
        </mxCell>
        <mxCell id="oqlo-vfNKLsv2BzAepEW-164" value="cntNumber" style="shape=parallelogram;perimeter=parallelogramPerimeter;whiteSpace=wrap;html=1;fixedSize=1;" parent="WIyWlLk6GJQsqaUBKTNV-1" vertex="1">
          <mxGeometry x="827" y="2278" width="120" height="60" as="geometry" />
        </mxCell>
        <mxCell id="oqlo-vfNKLsv2BzAepEW-168" value="false" style="text;html=1;align=center;verticalAlign=middle;resizable=0;points=[];autosize=1;strokeColor=none;fillColor=none;" parent="WIyWlLk6GJQsqaUBKTNV-1" vertex="1">
          <mxGeometry x="840" y="2240" width="50" height="30" as="geometry" />
        </mxCell>
        <mxCell id="oqlo-vfNKLsv2BzAepEW-173" value="" style="edgeStyle=orthogonalEdgeStyle;rounded=0;orthogonalLoop=1;jettySize=auto;html=1;" parent="WIyWlLk6GJQsqaUBKTNV-1" source="oqlo-vfNKLsv2BzAepEW-170" target="oqlo-vfNKLsv2BzAepEW-172" edge="1">
          <mxGeometry relative="1" as="geometry" />
        </mxCell>
        <mxCell id="oqlo-vfNKLsv2BzAepEW-221" value="" style="edgeStyle=orthogonalEdgeStyle;rounded=0;orthogonalLoop=1;jettySize=auto;html=1;" parent="WIyWlLk6GJQsqaUBKTNV-1" source="oqlo-vfNKLsv2BzAepEW-170" target="oqlo-vfNKLsv2BzAepEW-220" edge="1">
          <mxGeometry relative="1" as="geometry" />
        </mxCell>
        <mxCell id="oqlo-vfNKLsv2BzAepEW-170" value="choice==7" style="rhombus;whiteSpace=wrap;html=1;" parent="WIyWlLk6GJQsqaUBKTNV-1" vertex="1">
          <mxGeometry x="340" y="2550" width="80" height="80" as="geometry" />
        </mxCell>
        <mxCell id="oqlo-vfNKLsv2BzAepEW-175" value="" style="edgeStyle=orthogonalEdgeStyle;rounded=0;orthogonalLoop=1;jettySize=auto;html=1;" parent="WIyWlLk6GJQsqaUBKTNV-1" source="oqlo-vfNKLsv2BzAepEW-172" target="oqlo-vfNKLsv2BzAepEW-174" edge="1">
          <mxGeometry relative="1" as="geometry" />
        </mxCell>
        <mxCell id="oqlo-vfNKLsv2BzAepEW-172" value="addValue&lt;br&gt;addIndex" style="shape=parallelogram;perimeter=parallelogramPerimeter;whiteSpace=wrap;html=1;fixedSize=1;" parent="WIyWlLk6GJQsqaUBKTNV-1" vertex="1">
          <mxGeometry x="465" y="2560" width="120" height="60" as="geometry" />
        </mxCell>
        <mxCell id="oqlo-vfNKLsv2BzAepEW-177" value="" style="edgeStyle=orthogonalEdgeStyle;rounded=0;orthogonalLoop=1;jettySize=auto;html=1;" parent="WIyWlLk6GJQsqaUBKTNV-1" source="oqlo-vfNKLsv2BzAepEW-174" target="oqlo-vfNKLsv2BzAepEW-176" edge="1">
          <mxGeometry relative="1" as="geometry" />
        </mxCell>
        <mxCell id="oqlo-vfNKLsv2BzAepEW-174" value="addIndex&amp;lt;0||addIndex&amp;gt;=99" style="rhombus;whiteSpace=wrap;html=1;" parent="WIyWlLk6GJQsqaUBKTNV-1" vertex="1">
          <mxGeometry x="640" y="2550" width="200" height="80" as="geometry" />
        </mxCell>
        <mxCell id="oqlo-vfNKLsv2BzAepEW-180" value="" style="edgeStyle=orthogonalEdgeStyle;rounded=0;orthogonalLoop=1;jettySize=auto;html=1;" parent="WIyWlLk6GJQsqaUBKTNV-1" source="oqlo-vfNKLsv2BzAepEW-176" target="oqlo-vfNKLsv2BzAepEW-179" edge="1">
          <mxGeometry relative="1" as="geometry" />
        </mxCell>
        <mxCell id="oqlo-vfNKLsv2BzAepEW-184" value="" style="edgeStyle=orthogonalEdgeStyle;rounded=0;orthogonalLoop=1;jettySize=auto;html=1;" parent="WIyWlLk6GJQsqaUBKTNV-1" source="oqlo-vfNKLsv2BzAepEW-176" target="oqlo-vfNKLsv2BzAepEW-183" edge="1">
          <mxGeometry relative="1" as="geometry" />
        </mxCell>
        <mxCell id="oqlo-vfNKLsv2BzAepEW-176" value="addIndex==currentIndex" style="rhombus;whiteSpace=wrap;html=1;" parent="WIyWlLk6GJQsqaUBKTNV-1" vertex="1">
          <mxGeometry x="900" y="2550" width="170" height="80" as="geometry" />
        </mxCell>
        <mxCell id="oqlo-vfNKLsv2BzAepEW-179" value="numbers[currentIndex] = addValue&lt;br&gt;currentIndex++" style="rounded=0;whiteSpace=wrap;html=1;" parent="WIyWlLk6GJQsqaUBKTNV-1" vertex="1">
          <mxGeometry x="1120" y="2560" width="200" height="60" as="geometry" />
        </mxCell>
        <mxCell id="oqlo-vfNKLsv2BzAepEW-181" value="true" style="text;html=1;align=center;verticalAlign=middle;resizable=0;points=[];autosize=1;strokeColor=none;fillColor=none;" parent="WIyWlLk6GJQsqaUBKTNV-1" vertex="1">
          <mxGeometry x="850" y="2560" width="40" height="30" as="geometry" />
        </mxCell>
        <mxCell id="oqlo-vfNKLsv2BzAepEW-182" value="true" style="text;html=1;align=center;verticalAlign=middle;resizable=0;points=[];autosize=1;strokeColor=none;fillColor=none;" parent="WIyWlLk6GJQsqaUBKTNV-1" vertex="1">
          <mxGeometry x="1072.5" y="2560" width="40" height="30" as="geometry" />
        </mxCell>
        <mxCell id="oqlo-vfNKLsv2BzAepEW-188" value="" style="edgeStyle=orthogonalEdgeStyle;rounded=0;orthogonalLoop=1;jettySize=auto;html=1;" parent="WIyWlLk6GJQsqaUBKTNV-1" source="oqlo-vfNKLsv2BzAepEW-183" target="oqlo-vfNKLsv2BzAepEW-187" edge="1">
          <mxGeometry relative="1" as="geometry" />
        </mxCell>
        <mxCell id="oqlo-vfNKLsv2BzAepEW-212" style="edgeStyle=orthogonalEdgeStyle;rounded=0;orthogonalLoop=1;jettySize=auto;html=1;entryX=0.5;entryY=0;entryDx=0;entryDy=0;" parent="WIyWlLk6GJQsqaUBKTNV-1" source="oqlo-vfNKLsv2BzAepEW-183" target="oqlo-vfNKLsv2BzAepEW-211" edge="1">
          <mxGeometry relative="1" as="geometry" />
        </mxCell>
        <mxCell id="oqlo-vfNKLsv2BzAepEW-183" value="addIndex&amp;gt;currentIndex" style="rhombus;whiteSpace=wrap;html=1;" parent="WIyWlLk6GJQsqaUBKTNV-1" vertex="1">
          <mxGeometry x="900" y="2680" width="170" height="80" as="geometry" />
        </mxCell>
        <mxCell id="oqlo-vfNKLsv2BzAepEW-185" value="false" style="text;html=1;align=center;verticalAlign=middle;resizable=0;points=[];autosize=1;strokeColor=none;fillColor=none;" parent="WIyWlLk6GJQsqaUBKTNV-1" vertex="1">
          <mxGeometry x="975" y="2638" width="50" height="30" as="geometry" />
        </mxCell>
        <mxCell id="oqlo-vfNKLsv2BzAepEW-190" value="" style="edgeStyle=orthogonalEdgeStyle;rounded=0;orthogonalLoop=1;jettySize=auto;html=1;" parent="WIyWlLk6GJQsqaUBKTNV-1" source="oqlo-vfNKLsv2BzAepEW-187" target="oqlo-vfNKLsv2BzAepEW-189" edge="1">
          <mxGeometry relative="1" as="geometry" />
        </mxCell>
        <mxCell id="oqlo-vfNKLsv2BzAepEW-187" value="i=currentIndex" style="rounded=0;whiteSpace=wrap;html=1;" parent="WIyWlLk6GJQsqaUBKTNV-1" vertex="1">
          <mxGeometry x="1121" y="2690" width="120" height="60" as="geometry" />
        </mxCell>
        <mxCell id="oqlo-vfNKLsv2BzAepEW-192" value="" style="edgeStyle=orthogonalEdgeStyle;rounded=0;orthogonalLoop=1;jettySize=auto;html=1;" parent="WIyWlLk6GJQsqaUBKTNV-1" source="oqlo-vfNKLsv2BzAepEW-189" target="oqlo-vfNKLsv2BzAepEW-191" edge="1">
          <mxGeometry relative="1" as="geometry" />
        </mxCell>
        <mxCell id="oqlo-vfNKLsv2BzAepEW-201" value="" style="edgeStyle=orthogonalEdgeStyle;rounded=0;orthogonalLoop=1;jettySize=auto;html=1;" parent="WIyWlLk6GJQsqaUBKTNV-1" source="oqlo-vfNKLsv2BzAepEW-189" target="oqlo-vfNKLsv2BzAepEW-200" edge="1">
          <mxGeometry relative="1" as="geometry" />
        </mxCell>
        <mxCell id="oqlo-vfNKLsv2BzAepEW-189" value="i&amp;lt;addIndex" style="rhombus;whiteSpace=wrap;html=1;" parent="WIyWlLk6GJQsqaUBKTNV-1" vertex="1">
          <mxGeometry x="1280" y="2680" width="80" height="80" as="geometry" />
        </mxCell>
        <mxCell id="oqlo-vfNKLsv2BzAepEW-198" value="" style="edgeStyle=orthogonalEdgeStyle;rounded=0;orthogonalLoop=1;jettySize=auto;html=1;" parent="WIyWlLk6GJQsqaUBKTNV-1" source="oqlo-vfNKLsv2BzAepEW-191" target="oqlo-vfNKLsv2BzAepEW-195" edge="1">
          <mxGeometry relative="1" as="geometry" />
        </mxCell>
        <mxCell id="oqlo-vfNKLsv2BzAepEW-191" value="numbers[i] = 0" style="rounded=0;whiteSpace=wrap;html=1;" parent="WIyWlLk6GJQsqaUBKTNV-1" vertex="1">
          <mxGeometry x="1400" y="2690" width="120" height="60" as="geometry" />
        </mxCell>
        <mxCell id="oqlo-vfNKLsv2BzAepEW-194" value="true" style="text;html=1;align=center;verticalAlign=middle;resizable=0;points=[];autosize=1;strokeColor=none;fillColor=none;" parent="WIyWlLk6GJQsqaUBKTNV-1" vertex="1">
          <mxGeometry x="1355" y="2698" width="40" height="30" as="geometry" />
        </mxCell>
        <mxCell id="oqlo-vfNKLsv2BzAepEW-199" style="edgeStyle=orthogonalEdgeStyle;rounded=0;orthogonalLoop=1;jettySize=auto;html=1;" parent="WIyWlLk6GJQsqaUBKTNV-1" source="oqlo-vfNKLsv2BzAepEW-195" edge="1">
          <mxGeometry relative="1" as="geometry">
            <mxPoint x="1260" y="2720" as="targetPoint" />
            <Array as="points">
              <mxPoint x="1620" y="2650" />
            </Array>
          </mxGeometry>
        </mxCell>
        <mxCell id="oqlo-vfNKLsv2BzAepEW-195" value="i++" style="rounded=0;whiteSpace=wrap;html=1;" parent="WIyWlLk6GJQsqaUBKTNV-1" vertex="1">
          <mxGeometry x="1560" y="2690" width="120" height="60" as="geometry" />
        </mxCell>
        <mxCell id="oqlo-vfNKLsv2BzAepEW-200" value="numbers[addIndex] = addValue&lt;br&gt;currentIndex = addIndex+1" style="rounded=0;whiteSpace=wrap;html=1;" parent="WIyWlLk6GJQsqaUBKTNV-1" vertex="1">
          <mxGeometry x="1230" y="2800" width="180" height="60" as="geometry" />
        </mxCell>
        <mxCell id="oqlo-vfNKLsv2BzAepEW-202" value="false" style="text;html=1;align=center;verticalAlign=middle;resizable=0;points=[];autosize=1;strokeColor=none;fillColor=none;" parent="WIyWlLk6GJQsqaUBKTNV-1" vertex="1">
          <mxGeometry x="1310" y="2760" width="50" height="30" as="geometry" />
        </mxCell>
        <mxCell id="oqlo-vfNKLsv2BzAepEW-207" value="" style="edgeStyle=orthogonalEdgeStyle;rounded=0;orthogonalLoop=1;jettySize=auto;html=1;" parent="WIyWlLk6GJQsqaUBKTNV-1" source="oqlo-vfNKLsv2BzAepEW-203" target="oqlo-vfNKLsv2BzAepEW-206" edge="1">
          <mxGeometry relative="1" as="geometry" />
        </mxCell>
        <mxCell id="oqlo-vfNKLsv2BzAepEW-217" value="" style="edgeStyle=orthogonalEdgeStyle;rounded=0;orthogonalLoop=1;jettySize=auto;html=1;" parent="WIyWlLk6GJQsqaUBKTNV-1" source="oqlo-vfNKLsv2BzAepEW-203" target="oqlo-vfNKLsv2BzAepEW-216" edge="1">
          <mxGeometry relative="1" as="geometry" />
        </mxCell>
        <mxCell id="oqlo-vfNKLsv2BzAepEW-203" value="i&amp;gt;addIndex" style="rhombus;whiteSpace=wrap;html=1;" parent="WIyWlLk6GJQsqaUBKTNV-1" vertex="1">
          <mxGeometry x="945" y="3040" width="80" height="80" as="geometry" />
        </mxCell>
        <mxCell id="oqlo-vfNKLsv2BzAepEW-204" value="true" style="text;html=1;align=center;verticalAlign=middle;resizable=0;points=[];autosize=1;strokeColor=none;fillColor=none;" parent="WIyWlLk6GJQsqaUBKTNV-1" vertex="1">
          <mxGeometry x="1070" y="2690" width="40" height="30" as="geometry" />
        </mxCell>
        <mxCell id="oqlo-vfNKLsv2BzAepEW-209" value="" style="edgeStyle=orthogonalEdgeStyle;rounded=0;orthogonalLoop=1;jettySize=auto;html=1;" parent="WIyWlLk6GJQsqaUBKTNV-1" source="oqlo-vfNKLsv2BzAepEW-206" target="oqlo-vfNKLsv2BzAepEW-208" edge="1">
          <mxGeometry relative="1" as="geometry" />
        </mxCell>
        <mxCell id="oqlo-vfNKLsv2BzAepEW-206" value="numbers[i] = numbers[i-1]" style="rounded=0;whiteSpace=wrap;html=1;" parent="WIyWlLk6GJQsqaUBKTNV-1" vertex="1">
          <mxGeometry x="1080" y="3050" width="150" height="60" as="geometry" />
        </mxCell>
        <mxCell id="oqlo-vfNKLsv2BzAepEW-215" style="edgeStyle=orthogonalEdgeStyle;rounded=0;orthogonalLoop=1;jettySize=auto;html=1;" parent="WIyWlLk6GJQsqaUBKTNV-1" edge="1">
          <mxGeometry relative="1" as="geometry">
            <mxPoint x="986" y="3010" as="targetPoint" />
            <mxPoint x="1346" y="3050" as="sourcePoint" />
            <Array as="points">
              <mxPoint x="1340" y="3050" />
              <mxPoint x="1340" y="3010" />
            </Array>
          </mxGeometry>
        </mxCell>
        <mxCell id="oqlo-vfNKLsv2BzAepEW-208" value="i--" style="rounded=0;whiteSpace=wrap;html=1;" parent="WIyWlLk6GJQsqaUBKTNV-1" vertex="1">
          <mxGeometry x="1280" y="3050" width="120" height="60" as="geometry" />
        </mxCell>
        <mxCell id="oqlo-vfNKLsv2BzAepEW-213" style="edgeStyle=orthogonalEdgeStyle;rounded=0;orthogonalLoop=1;jettySize=auto;html=1;" parent="WIyWlLk6GJQsqaUBKTNV-1" source="oqlo-vfNKLsv2BzAepEW-211" target="oqlo-vfNKLsv2BzAepEW-203" edge="1">
          <mxGeometry relative="1" as="geometry" />
        </mxCell>
        <mxCell id="oqlo-vfNKLsv2BzAepEW-211" value="i=currentIndex" style="rounded=0;whiteSpace=wrap;html=1;" parent="WIyWlLk6GJQsqaUBKTNV-1" vertex="1">
          <mxGeometry x="925" y="2920" width="120" height="60" as="geometry" />
        </mxCell>
        <mxCell id="oqlo-vfNKLsv2BzAepEW-214" value="true" style="text;html=1;align=center;verticalAlign=middle;resizable=0;points=[];autosize=1;strokeColor=none;fillColor=none;" parent="WIyWlLk6GJQsqaUBKTNV-1" vertex="1">
          <mxGeometry x="1032.5" y="3050" width="40" height="30" as="geometry" />
        </mxCell>
        <mxCell id="oqlo-vfNKLsv2BzAepEW-219" style="edgeStyle=orthogonalEdgeStyle;rounded=0;orthogonalLoop=1;jettySize=auto;html=1;" parent="WIyWlLk6GJQsqaUBKTNV-1" edge="1">
          <mxGeometry relative="1" as="geometry">
            <mxPoint x="1720" y="2308" as="targetPoint" />
            <mxPoint x="1077.5" y="3188" as="sourcePoint" />
            <Array as="points">
              <mxPoint x="1720" y="3188" />
              <mxPoint x="1720" y="3188" />
            </Array>
          </mxGeometry>
        </mxCell>
        <mxCell id="oqlo-vfNKLsv2BzAepEW-216" value="currentIndex++&lt;br&gt;numbers[addIndex] = addValue" style="rounded=0;whiteSpace=wrap;html=1;" parent="WIyWlLk6GJQsqaUBKTNV-1" vertex="1">
          <mxGeometry x="892.5" y="3160" width="185" height="60" as="geometry" />
        </mxCell>
        <mxCell id="oqlo-vfNKLsv2BzAepEW-218" value="false" style="text;html=1;align=center;verticalAlign=middle;resizable=0;points=[];autosize=1;strokeColor=none;fillColor=none;" parent="WIyWlLk6GJQsqaUBKTNV-1" vertex="1">
          <mxGeometry x="975" y="3118" width="50" height="30" as="geometry" />
        </mxCell>
        <mxCell id="oqlo-vfNKLsv2BzAepEW-227" value="" style="edgeStyle=orthogonalEdgeStyle;rounded=0;orthogonalLoop=1;jettySize=auto;html=1;" parent="WIyWlLk6GJQsqaUBKTNV-1" source="oqlo-vfNKLsv2BzAepEW-220" target="oqlo-vfNKLsv2BzAepEW-226" edge="1">
          <mxGeometry relative="1" as="geometry" />
        </mxCell>
        <mxCell id="oqlo-vfNKLsv2BzAepEW-230" value="" style="edgeStyle=orthogonalEdgeStyle;rounded=0;orthogonalLoop=1;jettySize=auto;html=1;" parent="WIyWlLk6GJQsqaUBKTNV-1" source="oqlo-vfNKLsv2BzAepEW-220" target="oqlo-vfNKLsv2BzAepEW-229" edge="1">
          <mxGeometry relative="1" as="geometry" />
        </mxCell>
        <mxCell id="oqlo-vfNKLsv2BzAepEW-220" value="choie==8" style="rhombus;whiteSpace=wrap;html=1;" parent="WIyWlLk6GJQsqaUBKTNV-1" vertex="1">
          <mxGeometry x="340" y="2720" width="80" height="80" as="geometry" />
        </mxCell>
        <mxCell id="oqlo-vfNKLsv2BzAepEW-222" value="true" style="text;html=1;align=center;verticalAlign=middle;resizable=0;points=[];autosize=1;strokeColor=none;fillColor=none;" parent="WIyWlLk6GJQsqaUBKTNV-1" vertex="1">
          <mxGeometry x="425" y="2560" width="40" height="30" as="geometry" />
        </mxCell>
        <mxCell id="oqlo-vfNKLsv2BzAepEW-223" value="true" style="text;html=1;align=center;verticalAlign=middle;resizable=0;points=[];autosize=1;strokeColor=none;fillColor=none;" parent="WIyWlLk6GJQsqaUBKTNV-1" vertex="1">
          <mxGeometry x="418" y="860" width="40" height="30" as="geometry" />
        </mxCell>
        <mxCell id="oqlo-vfNKLsv2BzAepEW-224" value="true" style="text;html=1;align=center;verticalAlign=middle;resizable=0;points=[];autosize=1;strokeColor=none;fillColor=none;" parent="WIyWlLk6GJQsqaUBKTNV-1" vertex="1">
          <mxGeometry x="420" y="1310" width="40" height="30" as="geometry" />
        </mxCell>
        <mxCell id="oqlo-vfNKLsv2BzAepEW-225" value="true" style="text;html=1;align=center;verticalAlign=middle;resizable=0;points=[];autosize=1;strokeColor=none;fillColor=none;" parent="WIyWlLk6GJQsqaUBKTNV-1" vertex="1">
          <mxGeometry x="418" y="1810" width="40" height="30" as="geometry" />
        </mxCell>
        <mxCell id="oqlo-vfNKLsv2BzAepEW-226" value="end" style="ellipse;whiteSpace=wrap;html=1;" parent="WIyWlLk6GJQsqaUBKTNV-1" vertex="1">
          <mxGeometry x="465" y="2720" width="120" height="80" as="geometry" />
        </mxCell>
        <mxCell id="oqlo-vfNKLsv2BzAepEW-228" value="true" style="text;html=1;align=center;verticalAlign=middle;resizable=0;points=[];autosize=1;strokeColor=none;fillColor=none;" parent="WIyWlLk6GJQsqaUBKTNV-1" vertex="1">
          <mxGeometry x="420" y="2728" width="40" height="30" as="geometry" />
        </mxCell>
        <mxCell id="oqlo-vfNKLsv2BzAepEW-232" style="edgeStyle=orthogonalEdgeStyle;rounded=0;orthogonalLoop=1;jettySize=auto;html=1;" parent="WIyWlLk6GJQsqaUBKTNV-1" source="oqlo-vfNKLsv2BzAepEW-229" edge="1">
          <mxGeometry relative="1" as="geometry">
            <mxPoint x="380" y="280" as="targetPoint" />
            <Array as="points">
              <mxPoint x="200" y="2880" />
            </Array>
          </mxGeometry>
        </mxCell>
        <mxCell id="oqlo-vfNKLsv2BzAepEW-229" value="Vui long chon tu 1-8" style="shape=parallelogram;perimeter=parallelogramPerimeter;whiteSpace=wrap;html=1;fixedSize=1;" parent="WIyWlLk6GJQsqaUBKTNV-1" vertex="1">
          <mxGeometry x="310" y="2850" width="140" height="60" as="geometry" />
        </mxCell>
        <mxCell id="oqlo-vfNKLsv2BzAepEW-231" value="false" style="text;html=1;align=center;verticalAlign=middle;resizable=0;points=[];autosize=1;strokeColor=none;fillColor=none;" parent="WIyWlLk6GJQsqaUBKTNV-1" vertex="1">
          <mxGeometry x="375" y="2810" width="50" height="30" as="geometry" />
        </mxCell>
      </root>
    </mxGraphModel>
  </diagram>
  <diagram id="yrMsp-PGBUdCEG3RSgMh" name="bai 2">
    <mxGraphModel dx="1120" dy="478" grid="1" gridSize="10" guides="1" tooltips="1" connect="1" arrows="1" fold="1" page="1" pageScale="1" pageWidth="827" pageHeight="1169" math="0" shadow="0">
      <root>
        <mxCell id="0" />
        <mxCell id="1" parent="0" />
        <mxCell id="hMQcTP0MUcnClVjFgq5b-2" value="" style="edgeStyle=orthogonalEdgeStyle;rounded=0;orthogonalLoop=1;jettySize=auto;html=1;" parent="1" source="cEIOGDHMsTxaWBUcelra-1" target="hMQcTP0MUcnClVjFgq5b-1" edge="1">
          <mxGeometry relative="1" as="geometry" />
        </mxCell>
        <mxCell id="cEIOGDHMsTxaWBUcelra-1" value="start" style="ellipse;whiteSpace=wrap;html=1;" parent="1" vertex="1">
          <mxGeometry x="320" y="20" width="120" height="80" as="geometry" />
        </mxCell>
        <mxCell id="hMQcTP0MUcnClVjFgq5b-7" value="" style="edgeStyle=orthogonalEdgeStyle;rounded=0;orthogonalLoop=1;jettySize=auto;html=1;" parent="1" source="cEIOGDHMsTxaWBUcelra-2" target="hMQcTP0MUcnClVjFgq5b-6" edge="1">
          <mxGeometry relative="1" as="geometry" />
        </mxCell>
        <mxCell id="cEIOGDHMsTxaWBUcelra-2" value="sumNumbers,mulNumbers&lt;br&gt;min,max,avgValue&lt;br&gt;cntNumber,maxRow&lt;br&gt;sumRow,indexMaxRow" style="shape=parallelogram;perimeter=parallelogramPerimeter;whiteSpace=wrap;html=1;fixedSize=1;" parent="1" vertex="1">
          <mxGeometry x="285" y="390" width="190" height="80" as="geometry" />
        </mxCell>
        <mxCell id="hMQcTP0MUcnClVjFgq5b-4" value="" style="edgeStyle=orthogonalEdgeStyle;rounded=0;orthogonalLoop=1;jettySize=auto;html=1;" parent="1" source="hMQcTP0MUcnClVjFgq5b-1" target="hMQcTP0MUcnClVjFgq5b-3" edge="1">
          <mxGeometry relative="1" as="geometry" />
        </mxCell>
        <mxCell id="hMQcTP0MUcnClVjFgq5b-1" value="input n,m" style="shape=parallelogram;perimeter=parallelogramPerimeter;whiteSpace=wrap;html=1;fixedSize=1;" parent="1" vertex="1">
          <mxGeometry x="320" y="140" width="120" height="60" as="geometry" />
        </mxCell>
        <mxCell id="hMQcTP0MUcnClVjFgq5b-5" value="" style="edgeStyle=orthogonalEdgeStyle;rounded=0;orthogonalLoop=1;jettySize=auto;html=1;" parent="1" source="hMQcTP0MUcnClVjFgq5b-3" target="cEIOGDHMsTxaWBUcelra-2" edge="1">
          <mxGeometry relative="1" as="geometry" />
        </mxCell>
        <mxCell id="hMQcTP0MUcnClVjFgq5b-3" value="numbers[n][m]&lt;br&gt;i,j" style="shape=parallelogram;perimeter=parallelogramPerimeter;whiteSpace=wrap;html=1;fixedSize=1;" parent="1" vertex="1">
          <mxGeometry x="320" y="240" width="120" height="60" as="geometry" />
        </mxCell>
        <mxCell id="lC9v8lQpPfmb3GiF7ECR-2" value="" style="edgeStyle=orthogonalEdgeStyle;rounded=0;orthogonalLoop=1;jettySize=auto;html=1;" parent="1" source="hMQcTP0MUcnClVjFgq5b-6" target="lC9v8lQpPfmb3GiF7ECR-1" edge="1">
          <mxGeometry relative="1" as="geometry" />
        </mxCell>
        <mxCell id="hMQcTP0MUcnClVjFgq5b-6" value="output&amp;nbsp;MENU" style="shape=parallelogram;perimeter=parallelogramPerimeter;whiteSpace=wrap;html=1;fixedSize=1;" parent="1" vertex="1">
          <mxGeometry x="320" y="510" width="120" height="60" as="geometry" />
        </mxCell>
        <mxCell id="_myNJtvTrjzmGiMFq8WA-2" value="" style="edgeStyle=orthogonalEdgeStyle;rounded=0;orthogonalLoop=1;jettySize=auto;html=1;" parent="1" source="lC9v8lQpPfmb3GiF7ECR-1" target="_myNJtvTrjzmGiMFq8WA-1" edge="1">
          <mxGeometry relative="1" as="geometry" />
        </mxCell>
        <mxCell id="lC9v8lQpPfmb3GiF7ECR-1" value="choice" style="shape=parallelogram;perimeter=parallelogramPerimeter;whiteSpace=wrap;html=1;fixedSize=1;" parent="1" vertex="1">
          <mxGeometry x="320" y="610" width="120" height="60" as="geometry" />
        </mxCell>
        <mxCell id="_myNJtvTrjzmGiMFq8WA-4" value="" style="edgeStyle=orthogonalEdgeStyle;rounded=0;orthogonalLoop=1;jettySize=auto;html=1;entryX=0;entryY=0.5;entryDx=0;entryDy=0;" parent="1" source="_myNJtvTrjzmGiMFq8WA-1" target="_myNJtvTrjzmGiMFq8WA-6" edge="1">
          <mxGeometry relative="1" as="geometry">
            <mxPoint x="475" y="760" as="targetPoint" />
          </mxGeometry>
        </mxCell>
        <mxCell id="BgYDtBZ5m6BTBYUZb8oP-5" value="" style="edgeStyle=orthogonalEdgeStyle;rounded=0;orthogonalLoop=1;jettySize=auto;html=1;" parent="1" source="_myNJtvTrjzmGiMFq8WA-1" target="BgYDtBZ5m6BTBYUZb8oP-4" edge="1">
          <mxGeometry relative="1" as="geometry" />
        </mxCell>
        <mxCell id="_myNJtvTrjzmGiMFq8WA-1" value="choice==1" style="rhombus;whiteSpace=wrap;html=1;" parent="1" vertex="1">
          <mxGeometry x="340" y="720" width="80" height="80" as="geometry" />
        </mxCell>
        <mxCell id="_myNJtvTrjzmGiMFq8WA-5" value="true" style="text;html=1;align=center;verticalAlign=middle;resizable=0;points=[];autosize=1;strokeColor=none;fillColor=none;" parent="1" vertex="1">
          <mxGeometry x="420" y="730" width="40" height="30" as="geometry" />
        </mxCell>
        <mxCell id="Vxb7TR5xtSviO54id8Va-2" value="" style="edgeStyle=orthogonalEdgeStyle;rounded=0;orthogonalLoop=1;jettySize=auto;html=1;" parent="1" source="_myNJtvTrjzmGiMFq8WA-6" target="Vxb7TR5xtSviO54id8Va-1" edge="1">
          <mxGeometry relative="1" as="geometry" />
        </mxCell>
        <mxCell id="_myNJtvTrjzmGiMFq8WA-6" value="i=0" style="rounded=0;whiteSpace=wrap;html=1;" parent="1" vertex="1">
          <mxGeometry x="480" y="730" width="80" height="60" as="geometry" />
        </mxCell>
        <mxCell id="Vxb7TR5xtSviO54id8Va-7" value="" style="edgeStyle=orthogonalEdgeStyle;rounded=0;orthogonalLoop=1;jettySize=auto;html=1;" parent="1" source="Vxb7TR5xtSviO54id8Va-1" target="Vxb7TR5xtSviO54id8Va-6" edge="1">
          <mxGeometry relative="1" as="geometry" />
        </mxCell>
        <mxCell id="BgYDtBZ5m6BTBYUZb8oP-20" style="edgeStyle=orthogonalEdgeStyle;rounded=0;orthogonalLoop=1;jettySize=auto;html=1;" parent="1" source="Vxb7TR5xtSviO54id8Va-1" edge="1">
          <mxGeometry relative="1" as="geometry">
            <mxPoint x="380" y="360" as="targetPoint" />
            <Array as="points">
              <mxPoint x="640" y="840" />
              <mxPoint x="1320" y="840" />
              <mxPoint x="1320" y="360" />
            </Array>
          </mxGeometry>
        </mxCell>
        <mxCell id="Vxb7TR5xtSviO54id8Va-1" value="i&amp;lt;n" style="rhombus;whiteSpace=wrap;html=1;" parent="1" vertex="1">
          <mxGeometry x="600" y="720" width="80" height="80" as="geometry" />
        </mxCell>
        <mxCell id="Vxb7TR5xtSviO54id8Va-5" value="true" style="text;html=1;align=center;verticalAlign=middle;resizable=0;points=[];autosize=1;strokeColor=none;fillColor=none;" parent="1" vertex="1">
          <mxGeometry x="680" y="730" width="40" height="30" as="geometry" />
        </mxCell>
        <mxCell id="Vxb7TR5xtSviO54id8Va-9" value="" style="edgeStyle=orthogonalEdgeStyle;rounded=0;orthogonalLoop=1;jettySize=auto;html=1;" parent="1" source="Vxb7TR5xtSviO54id8Va-6" target="Vxb7TR5xtSviO54id8Va-8" edge="1">
          <mxGeometry relative="1" as="geometry" />
        </mxCell>
        <mxCell id="Vxb7TR5xtSviO54id8Va-6" value="j=0" style="rounded=0;whiteSpace=wrap;html=1;" parent="1" vertex="1">
          <mxGeometry x="720" y="730" width="80" height="60" as="geometry" />
        </mxCell>
        <mxCell id="Vxb7TR5xtSviO54id8Va-11" value="" style="edgeStyle=orthogonalEdgeStyle;rounded=0;orthogonalLoop=1;jettySize=auto;html=1;" parent="1" source="Vxb7TR5xtSviO54id8Va-8" target="Vxb7TR5xtSviO54id8Va-10" edge="1">
          <mxGeometry relative="1" as="geometry" />
        </mxCell>
        <mxCell id="BgYDtBZ5m6BTBYUZb8oP-21" style="edgeStyle=orthogonalEdgeStyle;rounded=0;orthogonalLoop=1;jettySize=auto;html=1;" parent="1" source="Vxb7TR5xtSviO54id8Va-8" edge="1">
          <mxGeometry relative="1" as="geometry">
            <mxPoint x="880" y="840" as="targetPoint" />
          </mxGeometry>
        </mxCell>
        <mxCell id="Vxb7TR5xtSviO54id8Va-8" value="j&amp;lt;m" style="rhombus;whiteSpace=wrap;html=1;" parent="1" vertex="1">
          <mxGeometry x="840" y="720" width="80" height="80" as="geometry" />
        </mxCell>
        <mxCell id="Vxb7TR5xtSviO54id8Va-13" value="" style="edgeStyle=orthogonalEdgeStyle;rounded=0;orthogonalLoop=1;jettySize=auto;html=1;" parent="1" source="Vxb7TR5xtSviO54id8Va-10" target="Vxb7TR5xtSviO54id8Va-12" edge="1">
          <mxGeometry relative="1" as="geometry" />
        </mxCell>
        <mxCell id="Vxb7TR5xtSviO54id8Va-10" value="input numbers[i][j]" style="shape=parallelogram;perimeter=parallelogramPerimeter;whiteSpace=wrap;html=1;fixedSize=1;" parent="1" vertex="1">
          <mxGeometry x="960" y="730" width="130" height="60" as="geometry" />
        </mxCell>
        <mxCell id="BgYDtBZ5m6BTBYUZb8oP-1" style="edgeStyle=orthogonalEdgeStyle;rounded=0;orthogonalLoop=1;jettySize=auto;html=1;" parent="1" source="Vxb7TR5xtSviO54id8Va-12" edge="1">
          <mxGeometry relative="1" as="geometry">
            <mxPoint x="580" y="760" as="targetPoint" />
            <Array as="points">
              <mxPoint x="1181" y="680" />
              <mxPoint x="580" y="680" />
            </Array>
          </mxGeometry>
        </mxCell>
        <mxCell id="BgYDtBZ5m6BTBYUZb8oP-2" style="edgeStyle=orthogonalEdgeStyle;rounded=0;orthogonalLoop=1;jettySize=auto;html=1;" parent="1" source="Vxb7TR5xtSviO54id8Va-12" edge="1">
          <mxGeometry relative="1" as="geometry">
            <mxPoint x="820" y="760" as="targetPoint" />
            <Array as="points">
              <mxPoint x="1160" y="710" />
            </Array>
          </mxGeometry>
        </mxCell>
        <mxCell id="Vxb7TR5xtSviO54id8Va-12" value="i++&lt;br&gt;j++" style="rounded=0;whiteSpace=wrap;html=1;" parent="1" vertex="1">
          <mxGeometry x="1121" y="730" width="120" height="60" as="geometry" />
        </mxCell>
        <mxCell id="BgYDtBZ5m6BTBYUZb8oP-7" value="" style="edgeStyle=orthogonalEdgeStyle;rounded=0;orthogonalLoop=1;jettySize=auto;html=1;" parent="1" source="BgYDtBZ5m6BTBYUZb8oP-4" target="BgYDtBZ5m6BTBYUZb8oP-6" edge="1">
          <mxGeometry relative="1" as="geometry" />
        </mxCell>
        <mxCell id="A05m5xUNnwHrLR8DmizU-21" style="edgeStyle=orthogonalEdgeStyle;rounded=0;orthogonalLoop=1;jettySize=auto;html=1;" parent="1" source="BgYDtBZ5m6BTBYUZb8oP-4" target="BgYDtBZ5m6BTBYUZb8oP-32" edge="1">
          <mxGeometry relative="1" as="geometry" />
        </mxCell>
        <mxCell id="BgYDtBZ5m6BTBYUZb8oP-4" value="choice==2" style="rhombus;whiteSpace=wrap;html=1;" parent="1" vertex="1">
          <mxGeometry x="340" y="910" width="80" height="80" as="geometry" />
        </mxCell>
        <mxCell id="BgYDtBZ5m6BTBYUZb8oP-10" value="" style="edgeStyle=orthogonalEdgeStyle;rounded=0;orthogonalLoop=1;jettySize=auto;html=1;" parent="1" source="BgYDtBZ5m6BTBYUZb8oP-6" target="BgYDtBZ5m6BTBYUZb8oP-9" edge="1">
          <mxGeometry relative="1" as="geometry" />
        </mxCell>
        <mxCell id="BgYDtBZ5m6BTBYUZb8oP-6" value="i=0" style="rounded=0;whiteSpace=wrap;html=1;" parent="1" vertex="1">
          <mxGeometry x="480" y="921" width="80" height="60" as="geometry" />
        </mxCell>
        <mxCell id="BgYDtBZ5m6BTBYUZb8oP-8" value="true" style="text;html=1;align=center;verticalAlign=middle;resizable=0;points=[];autosize=1;strokeColor=none;fillColor=none;" parent="1" vertex="1">
          <mxGeometry x="420" y="890" width="40" height="30" as="geometry" />
        </mxCell>
        <mxCell id="BgYDtBZ5m6BTBYUZb8oP-12" value="" style="edgeStyle=orthogonalEdgeStyle;rounded=0;orthogonalLoop=1;jettySize=auto;html=1;" parent="1" source="BgYDtBZ5m6BTBYUZb8oP-9" target="BgYDtBZ5m6BTBYUZb8oP-11" edge="1">
          <mxGeometry relative="1" as="geometry" />
        </mxCell>
        <mxCell id="BgYDtBZ5m6BTBYUZb8oP-28" style="edgeStyle=orthogonalEdgeStyle;rounded=0;orthogonalLoop=1;jettySize=auto;html=1;" parent="1" source="BgYDtBZ5m6BTBYUZb8oP-9" edge="1">
          <mxGeometry relative="1" as="geometry">
            <mxPoint x="1320" y="840" as="targetPoint" />
            <Array as="points">
              <mxPoint x="640" y="1040" />
            </Array>
          </mxGeometry>
        </mxCell>
        <mxCell id="BgYDtBZ5m6BTBYUZb8oP-9" value="i&amp;lt;n" style="rhombus;whiteSpace=wrap;html=1;" parent="1" vertex="1">
          <mxGeometry x="600" y="911" width="80" height="80" as="geometry" />
        </mxCell>
        <mxCell id="BgYDtBZ5m6BTBYUZb8oP-14" value="" style="edgeStyle=orthogonalEdgeStyle;rounded=0;orthogonalLoop=1;jettySize=auto;html=1;" parent="1" source="BgYDtBZ5m6BTBYUZb8oP-11" target="BgYDtBZ5m6BTBYUZb8oP-13" edge="1">
          <mxGeometry relative="1" as="geometry" />
        </mxCell>
        <mxCell id="BgYDtBZ5m6BTBYUZb8oP-11" value="j=0" style="rounded=0;whiteSpace=wrap;html=1;" parent="1" vertex="1">
          <mxGeometry x="720" y="921" width="80" height="60" as="geometry" />
        </mxCell>
        <mxCell id="BgYDtBZ5m6BTBYUZb8oP-16" value="" style="edgeStyle=orthogonalEdgeStyle;rounded=0;orthogonalLoop=1;jettySize=auto;html=1;" parent="1" source="BgYDtBZ5m6BTBYUZb8oP-13" target="BgYDtBZ5m6BTBYUZb8oP-15" edge="1">
          <mxGeometry relative="1" as="geometry" />
        </mxCell>
        <mxCell id="BgYDtBZ5m6BTBYUZb8oP-29" style="edgeStyle=orthogonalEdgeStyle;rounded=0;orthogonalLoop=1;jettySize=auto;html=1;" parent="1" source="BgYDtBZ5m6BTBYUZb8oP-13" edge="1">
          <mxGeometry relative="1" as="geometry">
            <mxPoint x="880" y="1040" as="targetPoint" />
          </mxGeometry>
        </mxCell>
        <mxCell id="BgYDtBZ5m6BTBYUZb8oP-13" value="j&amp;lt;m" style="rhombus;whiteSpace=wrap;html=1;" parent="1" vertex="1">
          <mxGeometry x="840" y="911" width="80" height="80" as="geometry" />
        </mxCell>
        <mxCell id="BgYDtBZ5m6BTBYUZb8oP-18" value="" style="edgeStyle=orthogonalEdgeStyle;rounded=0;orthogonalLoop=1;jettySize=auto;html=1;" parent="1" source="BgYDtBZ5m6BTBYUZb8oP-15" target="BgYDtBZ5m6BTBYUZb8oP-17" edge="1">
          <mxGeometry relative="1" as="geometry" />
        </mxCell>
        <mxCell id="BgYDtBZ5m6BTBYUZb8oP-15" value="output numbers[i][j]" style="shape=parallelogram;perimeter=parallelogramPerimeter;whiteSpace=wrap;html=1;fixedSize=1;" parent="1" vertex="1">
          <mxGeometry x="960" y="920" width="130" height="60" as="geometry" />
        </mxCell>
        <mxCell id="BgYDtBZ5m6BTBYUZb8oP-24" style="edgeStyle=orthogonalEdgeStyle;rounded=0;orthogonalLoop=1;jettySize=auto;html=1;" parent="1" source="BgYDtBZ5m6BTBYUZb8oP-17" edge="1">
          <mxGeometry relative="1" as="geometry">
            <mxPoint x="580" y="950" as="targetPoint" />
            <Array as="points">
              <mxPoint x="1181" y="880" />
            </Array>
          </mxGeometry>
        </mxCell>
        <mxCell id="BgYDtBZ5m6BTBYUZb8oP-25" style="edgeStyle=orthogonalEdgeStyle;rounded=0;orthogonalLoop=1;jettySize=auto;html=1;" parent="1" source="BgYDtBZ5m6BTBYUZb8oP-17" edge="1">
          <mxGeometry relative="1" as="geometry">
            <mxPoint x="820" y="950" as="targetPoint" />
            <Array as="points">
              <mxPoint x="1160" y="900" />
            </Array>
          </mxGeometry>
        </mxCell>
        <mxCell id="BgYDtBZ5m6BTBYUZb8oP-17" value="i++&lt;br&gt;j++" style="rounded=0;whiteSpace=wrap;html=1;" parent="1" vertex="1">
          <mxGeometry x="1121" y="920" width="120" height="60" as="geometry" />
        </mxCell>
        <mxCell id="BgYDtBZ5m6BTBYUZb8oP-19" value="true" style="text;html=1;align=center;verticalAlign=middle;resizable=0;points=[];autosize=1;strokeColor=none;fillColor=none;" parent="1" vertex="1">
          <mxGeometry x="920" y="730" width="40" height="30" as="geometry" />
        </mxCell>
        <mxCell id="BgYDtBZ5m6BTBYUZb8oP-22" value="false" style="text;html=1;align=center;verticalAlign=middle;resizable=0;points=[];autosize=1;strokeColor=none;fillColor=none;" parent="1" vertex="1">
          <mxGeometry x="635" y="798" width="50" height="30" as="geometry" />
        </mxCell>
        <mxCell id="BgYDtBZ5m6BTBYUZb8oP-23" value="false" style="text;html=1;align=center;verticalAlign=middle;resizable=0;points=[];autosize=1;strokeColor=none;fillColor=none;" parent="1" vertex="1">
          <mxGeometry x="880" y="800" width="50" height="30" as="geometry" />
        </mxCell>
        <mxCell id="BgYDtBZ5m6BTBYUZb8oP-26" value="true" style="text;html=1;align=center;verticalAlign=middle;resizable=0;points=[];autosize=1;strokeColor=none;fillColor=none;" parent="1" vertex="1">
          <mxGeometry x="680" y="920" width="40" height="30" as="geometry" />
        </mxCell>
        <mxCell id="BgYDtBZ5m6BTBYUZb8oP-27" value="true" style="text;html=1;align=center;verticalAlign=middle;resizable=0;points=[];autosize=1;strokeColor=none;fillColor=none;" parent="1" vertex="1">
          <mxGeometry x="920" y="918" width="40" height="30" as="geometry" />
        </mxCell>
        <mxCell id="BgYDtBZ5m6BTBYUZb8oP-30" value="false" style="text;html=1;align=center;verticalAlign=middle;resizable=0;points=[];autosize=1;strokeColor=none;fillColor=none;" parent="1" vertex="1">
          <mxGeometry x="635" y="998" width="50" height="30" as="geometry" />
        </mxCell>
        <mxCell id="BgYDtBZ5m6BTBYUZb8oP-31" value="false" style="text;html=1;align=center;verticalAlign=middle;resizable=0;points=[];autosize=1;strokeColor=none;fillColor=none;" parent="1" vertex="1">
          <mxGeometry x="880" y="998" width="50" height="30" as="geometry" />
        </mxCell>
        <mxCell id="BgYDtBZ5m6BTBYUZb8oP-45" value="" style="edgeStyle=orthogonalEdgeStyle;rounded=0;orthogonalLoop=1;jettySize=auto;html=1;" parent="1" source="BgYDtBZ5m6BTBYUZb8oP-32" target="BgYDtBZ5m6BTBYUZb8oP-44" edge="1">
          <mxGeometry relative="1" as="geometry" />
        </mxCell>
        <mxCell id="A05m5xUNnwHrLR8DmizU-56" style="edgeStyle=orthogonalEdgeStyle;rounded=0;orthogonalLoop=1;jettySize=auto;html=1;" parent="1" source="BgYDtBZ5m6BTBYUZb8oP-32" target="A05m5xUNnwHrLR8DmizU-24" edge="1">
          <mxGeometry relative="1" as="geometry" />
        </mxCell>
        <mxCell id="BgYDtBZ5m6BTBYUZb8oP-32" value="choice==3" style="rhombus;whiteSpace=wrap;html=1;" parent="1" vertex="1">
          <mxGeometry x="340" y="1225" width="80" height="80" as="geometry" />
        </mxCell>
        <mxCell id="BgYDtBZ5m6BTBYUZb8oP-38" value="" style="edgeStyle=orthogonalEdgeStyle;rounded=0;orthogonalLoop=1;jettySize=auto;html=1;" parent="1" source="BgYDtBZ5m6BTBYUZb8oP-33" target="BgYDtBZ5m6BTBYUZb8oP-34" edge="1">
          <mxGeometry relative="1" as="geometry" />
        </mxCell>
        <mxCell id="BgYDtBZ5m6BTBYUZb8oP-33" value="i=0" style="rounded=0;whiteSpace=wrap;html=1;" parent="1" vertex="1">
          <mxGeometry x="611" y="1235" width="80" height="60" as="geometry" />
        </mxCell>
        <mxCell id="BgYDtBZ5m6BTBYUZb8oP-39" value="" style="edgeStyle=orthogonalEdgeStyle;rounded=0;orthogonalLoop=1;jettySize=auto;html=1;" parent="1" source="BgYDtBZ5m6BTBYUZb8oP-34" target="BgYDtBZ5m6BTBYUZb8oP-35" edge="1">
          <mxGeometry relative="1" as="geometry" />
        </mxCell>
        <mxCell id="-H7SbYvp7j1ytzllU2nW-2" style="edgeStyle=orthogonalEdgeStyle;rounded=0;orthogonalLoop=1;jettySize=auto;html=1;" parent="1" source="BgYDtBZ5m6BTBYUZb8oP-34" edge="1">
          <mxGeometry relative="1" as="geometry">
            <mxPoint x="1720" y="1450" as="targetPoint" />
            <Array as="points">
              <mxPoint x="771" y="1383" />
              <mxPoint x="772" y="1460" />
            </Array>
          </mxGeometry>
        </mxCell>
        <mxCell id="BgYDtBZ5m6BTBYUZb8oP-34" value="i&amp;lt;n" style="rhombus;whiteSpace=wrap;html=1;" parent="1" vertex="1">
          <mxGeometry x="731" y="1225" width="80" height="80" as="geometry" />
        </mxCell>
        <mxCell id="BgYDtBZ5m6BTBYUZb8oP-48" value="" style="edgeStyle=orthogonalEdgeStyle;rounded=0;orthogonalLoop=1;jettySize=auto;html=1;" parent="1" source="BgYDtBZ5m6BTBYUZb8oP-35" target="BgYDtBZ5m6BTBYUZb8oP-36" edge="1">
          <mxGeometry relative="1" as="geometry" />
        </mxCell>
        <mxCell id="BgYDtBZ5m6BTBYUZb8oP-35" value="j=0" style="rounded=0;whiteSpace=wrap;html=1;" parent="1" vertex="1">
          <mxGeometry x="851" y="1235" width="80" height="60" as="geometry" />
        </mxCell>
        <mxCell id="BgYDtBZ5m6BTBYUZb8oP-50" value="" style="edgeStyle=orthogonalEdgeStyle;rounded=0;orthogonalLoop=1;jettySize=auto;html=1;" parent="1" source="BgYDtBZ5m6BTBYUZb8oP-36" target="BgYDtBZ5m6BTBYUZb8oP-49" edge="1">
          <mxGeometry relative="1" as="geometry" />
        </mxCell>
        <mxCell id="-H7SbYvp7j1ytzllU2nW-1" style="edgeStyle=orthogonalEdgeStyle;rounded=0;orthogonalLoop=1;jettySize=auto;html=1;" parent="1" source="BgYDtBZ5m6BTBYUZb8oP-36" edge="1">
          <mxGeometry relative="1" as="geometry">
            <mxPoint x="1011" y="1450" as="targetPoint" />
          </mxGeometry>
        </mxCell>
        <mxCell id="BgYDtBZ5m6BTBYUZb8oP-36" value="j&amp;lt;m" style="rhombus;whiteSpace=wrap;html=1;" parent="1" vertex="1">
          <mxGeometry x="971" y="1225" width="80" height="80" as="geometry" />
        </mxCell>
        <mxCell id="BgYDtBZ5m6BTBYUZb8oP-47" value="" style="edgeStyle=orthogonalEdgeStyle;rounded=0;orthogonalLoop=1;jettySize=auto;html=1;" parent="1" source="BgYDtBZ5m6BTBYUZb8oP-44" target="BgYDtBZ5m6BTBYUZb8oP-33" edge="1">
          <mxGeometry relative="1" as="geometry" />
        </mxCell>
        <mxCell id="BgYDtBZ5m6BTBYUZb8oP-44" value="sumNumbers=0" style="rounded=0;whiteSpace=wrap;html=1;" parent="1" vertex="1">
          <mxGeometry x="480" y="1235" width="90" height="60" as="geometry" />
        </mxCell>
        <mxCell id="BgYDtBZ5m6BTBYUZb8oP-46" value="true" style="text;html=1;align=center;verticalAlign=middle;resizable=0;points=[];autosize=1;strokeColor=none;fillColor=none;" parent="1" vertex="1">
          <mxGeometry x="420" y="1233" width="40" height="30" as="geometry" />
        </mxCell>
        <mxCell id="BgYDtBZ5m6BTBYUZb8oP-55" style="edgeStyle=orthogonalEdgeStyle;rounded=0;orthogonalLoop=1;jettySize=auto;html=1;" parent="1" source="BgYDtBZ5m6BTBYUZb8oP-49" target="BgYDtBZ5m6BTBYUZb8oP-54" edge="1">
          <mxGeometry relative="1" as="geometry" />
        </mxCell>
        <mxCell id="A05m5xUNnwHrLR8DmizU-14" value="" style="edgeStyle=orthogonalEdgeStyle;rounded=0;orthogonalLoop=1;jettySize=auto;html=1;" parent="1" source="BgYDtBZ5m6BTBYUZb8oP-49" target="A05m5xUNnwHrLR8DmizU-13" edge="1">
          <mxGeometry relative="1" as="geometry" />
        </mxCell>
        <mxCell id="BgYDtBZ5m6BTBYUZb8oP-49" value="numbers[i][j]%2!=0" style="rhombus;whiteSpace=wrap;html=1;" parent="1" vertex="1">
          <mxGeometry x="1090" y="1225" width="120" height="80" as="geometry" />
        </mxCell>
        <mxCell id="BgYDtBZ5m6BTBYUZb8oP-51" value="true" style="text;html=1;align=center;verticalAlign=middle;resizable=0;points=[];autosize=1;strokeColor=none;fillColor=none;" parent="1" vertex="1">
          <mxGeometry x="811" y="1233" width="40" height="30" as="geometry" />
        </mxCell>
        <mxCell id="BgYDtBZ5m6BTBYUZb8oP-53" value="true" style="text;html=1;align=center;verticalAlign=middle;resizable=0;points=[];autosize=1;strokeColor=none;fillColor=none;" parent="1" vertex="1">
          <mxGeometry x="1051" y="1235" width="40" height="30" as="geometry" />
        </mxCell>
        <mxCell id="A05m5xUNnwHrLR8DmizU-9" value="" style="edgeStyle=orthogonalEdgeStyle;rounded=0;orthogonalLoop=1;jettySize=auto;html=1;" parent="1" source="BgYDtBZ5m6BTBYUZb8oP-54" target="A05m5xUNnwHrLR8DmizU-2" edge="1">
          <mxGeometry relative="1" as="geometry" />
        </mxCell>
        <mxCell id="A05m5xUNnwHrLR8DmizU-20" style="edgeStyle=orthogonalEdgeStyle;rounded=0;orthogonalLoop=1;jettySize=auto;html=1;" parent="1" source="BgYDtBZ5m6BTBYUZb8oP-54" edge="1">
          <mxGeometry relative="1" as="geometry">
            <mxPoint x="1720" y="1233" as="targetPoint" />
          </mxGeometry>
        </mxCell>
        <mxCell id="BgYDtBZ5m6BTBYUZb8oP-54" value="numbers[i][j]" style="shape=parallelogram;perimeter=parallelogramPerimeter;whiteSpace=wrap;html=1;fixedSize=1;" parent="1" vertex="1">
          <mxGeometry x="1305" y="1203" width="120" height="60" as="geometry" />
        </mxCell>
        <mxCell id="A05m5xUNnwHrLR8DmizU-10" value="" style="edgeStyle=orthogonalEdgeStyle;rounded=0;orthogonalLoop=1;jettySize=auto;html=1;" parent="1" source="BgYDtBZ5m6BTBYUZb8oP-56" target="A05m5xUNnwHrLR8DmizU-1" edge="1">
          <mxGeometry relative="1" as="geometry" />
        </mxCell>
        <mxCell id="A05m5xUNnwHrLR8DmizU-16" style="edgeStyle=orthogonalEdgeStyle;rounded=0;orthogonalLoop=1;jettySize=auto;html=1;entryX=0.996;entryY=0.67;entryDx=0;entryDy=0;entryPerimeter=0;" parent="1" source="BgYDtBZ5m6BTBYUZb8oP-56" target="A05m5xUNnwHrLR8DmizU-13" edge="1">
          <mxGeometry relative="1" as="geometry">
            <mxPoint x="1390" y="1400.0000000000002" as="targetPoint" />
            <Array as="points">
              <mxPoint x="1390" y="1400" />
            </Array>
          </mxGeometry>
        </mxCell>
        <mxCell id="BgYDtBZ5m6BTBYUZb8oP-56" value="sumNumbers+=numbers[i][j]" style="rounded=0;whiteSpace=wrap;html=1;" parent="1" vertex="1">
          <mxGeometry x="1305" y="1290" width="170" height="60" as="geometry" />
        </mxCell>
        <mxCell id="BgYDtBZ5m6BTBYUZb8oP-57" style="edgeStyle=orthogonalEdgeStyle;rounded=0;orthogonalLoop=1;jettySize=auto;html=1;entryX=0.019;entryY=0.592;entryDx=0;entryDy=0;entryPerimeter=0;" parent="1" source="BgYDtBZ5m6BTBYUZb8oP-49" target="BgYDtBZ5m6BTBYUZb8oP-56" edge="1">
          <mxGeometry relative="1" as="geometry" />
        </mxCell>
        <mxCell id="A05m5xUNnwHrLR8DmizU-19" style="edgeStyle=orthogonalEdgeStyle;rounded=0;orthogonalLoop=1;jettySize=auto;html=1;" parent="1" source="A05m5xUNnwHrLR8DmizU-1" edge="1">
          <mxGeometry relative="1" as="geometry">
            <mxPoint x="380" y="340" as="targetPoint" />
            <Array as="points">
              <mxPoint x="1720" y="1320" />
              <mxPoint x="1720" y="340" />
            </Array>
          </mxGeometry>
        </mxCell>
        <mxCell id="A05m5xUNnwHrLR8DmizU-1" value="sumNumbers" style="shape=parallelogram;perimeter=parallelogramPerimeter;whiteSpace=wrap;html=1;fixedSize=1;" parent="1" vertex="1">
          <mxGeometry x="1500" y="1290" width="120" height="60" as="geometry" />
        </mxCell>
        <mxCell id="A05m5xUNnwHrLR8DmizU-6" style="edgeStyle=orthogonalEdgeStyle;rounded=0;orthogonalLoop=1;jettySize=auto;html=1;" parent="1" edge="1">
          <mxGeometry relative="1" as="geometry">
            <mxPoint x="950" y="1266" as="targetPoint" />
            <mxPoint x="1305" y="1165.9565217391305" as="sourcePoint" />
            <Array as="points">
              <mxPoint x="1305" y="1160" />
              <mxPoint x="950" y="1160" />
            </Array>
          </mxGeometry>
        </mxCell>
        <mxCell id="A05m5xUNnwHrLR8DmizU-7" style="edgeStyle=orthogonalEdgeStyle;rounded=0;orthogonalLoop=1;jettySize=auto;html=1;exitX=0.023;exitY=0.404;exitDx=0;exitDy=0;exitPerimeter=0;" parent="1" source="A05m5xUNnwHrLR8DmizU-2" edge="1">
          <mxGeometry relative="1" as="geometry">
            <mxPoint x="710" y="1265" as="targetPoint" />
            <mxPoint x="1300" y="1134" as="sourcePoint" />
          </mxGeometry>
        </mxCell>
        <mxCell id="A05m5xUNnwHrLR8DmizU-2" value="i++&lt;br&gt;j++" style="rounded=0;whiteSpace=wrap;html=1;" parent="1" vertex="1">
          <mxGeometry x="1305" y="1109" width="120" height="60" as="geometry" />
        </mxCell>
        <mxCell id="A05m5xUNnwHrLR8DmizU-12" value="true" style="text;html=1;align=center;verticalAlign=middle;resizable=0;points=[];autosize=1;strokeColor=none;fillColor=none;" parent="1" vertex="1">
          <mxGeometry x="1210" y="1233" width="40" height="30" as="geometry" />
        </mxCell>
        <mxCell id="A05m5xUNnwHrLR8DmizU-17" style="edgeStyle=orthogonalEdgeStyle;rounded=0;orthogonalLoop=1;jettySize=auto;html=1;" parent="1" source="A05m5xUNnwHrLR8DmizU-13" edge="1">
          <mxGeometry relative="1" as="geometry">
            <mxPoint x="950" y="1260" as="targetPoint" />
          </mxGeometry>
        </mxCell>
        <mxCell id="A05m5xUNnwHrLR8DmizU-18" style="edgeStyle=orthogonalEdgeStyle;rounded=0;orthogonalLoop=1;jettySize=auto;html=1;" parent="1" source="A05m5xUNnwHrLR8DmizU-13" edge="1">
          <mxGeometry relative="1" as="geometry">
            <mxPoint x="710" y="1260" as="targetPoint" />
            <Array as="points">
              <mxPoint x="711" y="1400" />
              <mxPoint x="711" y="1260" />
            </Array>
          </mxGeometry>
        </mxCell>
        <mxCell id="A05m5xUNnwHrLR8DmizU-13" value="i++&lt;br&gt;j++" style="rounded=0;whiteSpace=wrap;html=1;" parent="1" vertex="1">
          <mxGeometry x="1090" y="1360" width="120" height="60" as="geometry" />
        </mxCell>
        <mxCell id="A05m5xUNnwHrLR8DmizU-15" value="false" style="text;html=1;align=center;verticalAlign=middle;resizable=0;points=[];autosize=1;strokeColor=none;fillColor=none;" parent="1" vertex="1">
          <mxGeometry x="1145" y="1308" width="50" height="30" as="geometry" />
        </mxCell>
        <mxCell id="A05m5xUNnwHrLR8DmizU-22" value="false" style="text;html=1;align=center;verticalAlign=middle;resizable=0;points=[];autosize=1;strokeColor=none;fillColor=none;" parent="1" vertex="1">
          <mxGeometry x="335" y="838" width="50" height="30" as="geometry" />
        </mxCell>
        <mxCell id="A05m5xUNnwHrLR8DmizU-23" value="false" style="text;html=1;align=center;verticalAlign=middle;resizable=0;points=[];autosize=1;strokeColor=none;fillColor=none;" parent="1" vertex="1">
          <mxGeometry x="335" y="1088" width="50" height="30" as="geometry" />
        </mxCell>
        <mxCell id="A05m5xUNnwHrLR8DmizU-26" value="" style="edgeStyle=orthogonalEdgeStyle;rounded=0;orthogonalLoop=1;jettySize=auto;html=1;" parent="1" source="A05m5xUNnwHrLR8DmizU-24" target="A05m5xUNnwHrLR8DmizU-25" edge="1">
          <mxGeometry relative="1" as="geometry" />
        </mxCell>
        <mxCell id="Xp676sc2dcjYZdjnzjJe-19" style="edgeStyle=orthogonalEdgeStyle;rounded=0;orthogonalLoop=1;jettySize=auto;html=1;entryX=0.5;entryY=0;entryDx=0;entryDy=0;" parent="1" source="A05m5xUNnwHrLR8DmizU-24" target="-H7SbYvp7j1ytzllU2nW-7" edge="1">
          <mxGeometry relative="1" as="geometry" />
        </mxCell>
        <mxCell id="A05m5xUNnwHrLR8DmizU-24" value="choice==4" style="rhombus;whiteSpace=wrap;html=1;" parent="1" vertex="1">
          <mxGeometry x="340" y="1598" width="80" height="80" as="geometry" />
        </mxCell>
        <mxCell id="A05m5xUNnwHrLR8DmizU-29" value="" style="edgeStyle=orthogonalEdgeStyle;rounded=0;orthogonalLoop=1;jettySize=auto;html=1;" parent="1" source="A05m5xUNnwHrLR8DmizU-25" target="A05m5xUNnwHrLR8DmizU-28" edge="1">
          <mxGeometry relative="1" as="geometry" />
        </mxCell>
        <mxCell id="A05m5xUNnwHrLR8DmizU-25" value="mulNumbers = 1" style="rounded=0;whiteSpace=wrap;html=1;" parent="1" vertex="1">
          <mxGeometry x="465" y="1608" width="95" height="60" as="geometry" />
        </mxCell>
        <mxCell id="A05m5xUNnwHrLR8DmizU-27" value="true" style="text;html=1;align=center;verticalAlign=middle;resizable=0;points=[];autosize=1;strokeColor=none;fillColor=none;" parent="1" vertex="1">
          <mxGeometry x="410" y="1606" width="40" height="30" as="geometry" />
        </mxCell>
        <mxCell id="A05m5xUNnwHrLR8DmizU-31" value="" style="edgeStyle=orthogonalEdgeStyle;rounded=0;orthogonalLoop=1;jettySize=auto;html=1;" parent="1" source="A05m5xUNnwHrLR8DmizU-28" target="A05m5xUNnwHrLR8DmizU-30" edge="1">
          <mxGeometry relative="1" as="geometry" />
        </mxCell>
        <mxCell id="A05m5xUNnwHrLR8DmizU-28" value="i=0" style="rounded=0;whiteSpace=wrap;html=1;" parent="1" vertex="1">
          <mxGeometry x="600" y="1608" width="70" height="60" as="geometry" />
        </mxCell>
        <mxCell id="A05m5xUNnwHrLR8DmizU-33" value="" style="edgeStyle=orthogonalEdgeStyle;rounded=0;orthogonalLoop=1;jettySize=auto;html=1;" parent="1" source="A05m5xUNnwHrLR8DmizU-30" target="A05m5xUNnwHrLR8DmizU-32" edge="1">
          <mxGeometry relative="1" as="geometry" />
        </mxCell>
        <mxCell id="-H7SbYvp7j1ytzllU2nW-6" style="edgeStyle=orthogonalEdgeStyle;rounded=0;orthogonalLoop=1;jettySize=auto;html=1;" parent="1" edge="1">
          <mxGeometry relative="1" as="geometry">
            <mxPoint x="1719" y="1667" as="targetPoint" />
            <mxPoint x="750" y="1675" as="sourcePoint" />
            <Array as="points">
              <mxPoint x="750" y="1840" />
              <mxPoint x="1719" y="1840" />
            </Array>
          </mxGeometry>
        </mxCell>
        <mxCell id="A05m5xUNnwHrLR8DmizU-30" value="i&amp;lt;n" style="rhombus;whiteSpace=wrap;html=1;" parent="1" vertex="1">
          <mxGeometry x="710" y="1598" width="80" height="80" as="geometry" />
        </mxCell>
        <mxCell id="A05m5xUNnwHrLR8DmizU-36" value="" style="edgeStyle=orthogonalEdgeStyle;rounded=0;orthogonalLoop=1;jettySize=auto;html=1;" parent="1" source="A05m5xUNnwHrLR8DmizU-32" target="A05m5xUNnwHrLR8DmizU-35" edge="1">
          <mxGeometry relative="1" as="geometry" />
        </mxCell>
        <mxCell id="A05m5xUNnwHrLR8DmizU-32" value="j=0" style="rounded=0;whiteSpace=wrap;html=1;" parent="1" vertex="1">
          <mxGeometry x="831" y="1608" width="79" height="60" as="geometry" />
        </mxCell>
        <mxCell id="A05m5xUNnwHrLR8DmizU-34" value="true" style="text;html=1;align=center;verticalAlign=middle;resizable=0;points=[];autosize=1;strokeColor=none;fillColor=none;" parent="1" vertex="1">
          <mxGeometry x="787" y="1606" width="40" height="30" as="geometry" />
        </mxCell>
        <mxCell id="A05m5xUNnwHrLR8DmizU-38" value="" style="edgeStyle=orthogonalEdgeStyle;rounded=0;orthogonalLoop=1;jettySize=auto;html=1;" parent="1" source="A05m5xUNnwHrLR8DmizU-35" target="A05m5xUNnwHrLR8DmizU-37" edge="1">
          <mxGeometry relative="1" as="geometry" />
        </mxCell>
        <mxCell id="-H7SbYvp7j1ytzllU2nW-3" style="edgeStyle=orthogonalEdgeStyle;rounded=0;orthogonalLoop=1;jettySize=auto;html=1;" parent="1" source="A05m5xUNnwHrLR8DmizU-35" edge="1">
          <mxGeometry relative="1" as="geometry">
            <mxPoint x="990" y="1840" as="targetPoint" />
          </mxGeometry>
        </mxCell>
        <mxCell id="A05m5xUNnwHrLR8DmizU-35" value="j&amp;lt;m" style="rhombus;whiteSpace=wrap;html=1;" parent="1" vertex="1">
          <mxGeometry x="950" y="1598" width="80" height="80" as="geometry" />
        </mxCell>
        <mxCell id="A05m5xUNnwHrLR8DmizU-40" value="" style="edgeStyle=orthogonalEdgeStyle;rounded=0;orthogonalLoop=1;jettySize=auto;html=1;" parent="1" source="A05m5xUNnwHrLR8DmizU-37" target="A05m5xUNnwHrLR8DmizU-39" edge="1">
          <mxGeometry relative="1" as="geometry" />
        </mxCell>
        <mxCell id="A05m5xUNnwHrLR8DmizU-51" value="" style="edgeStyle=orthogonalEdgeStyle;rounded=0;orthogonalLoop=1;jettySize=auto;html=1;" parent="1" source="A05m5xUNnwHrLR8DmizU-37" target="A05m5xUNnwHrLR8DmizU-50" edge="1">
          <mxGeometry relative="1" as="geometry" />
        </mxCell>
        <mxCell id="A05m5xUNnwHrLR8DmizU-37" value="i==0 || i==n-1 || j ==0 || j == m-1" style="rhombus;whiteSpace=wrap;html=1;" parent="1" vertex="1">
          <mxGeometry x="1070" y="1598" width="210" height="80" as="geometry" />
        </mxCell>
        <mxCell id="A05m5xUNnwHrLR8DmizU-47" value="" style="edgeStyle=orthogonalEdgeStyle;rounded=0;orthogonalLoop=1;jettySize=auto;html=1;" parent="1" source="A05m5xUNnwHrLR8DmizU-39" target="A05m5xUNnwHrLR8DmizU-46" edge="1">
          <mxGeometry relative="1" as="geometry" />
        </mxCell>
        <mxCell id="A05m5xUNnwHrLR8DmizU-58" style="edgeStyle=orthogonalEdgeStyle;rounded=0;orthogonalLoop=1;jettySize=auto;html=1;" parent="1" source="A05m5xUNnwHrLR8DmizU-39" edge="1">
          <mxGeometry relative="1" as="geometry">
            <mxPoint x="1720" y="1590" as="targetPoint" />
          </mxGeometry>
        </mxCell>
        <mxCell id="A05m5xUNnwHrLR8DmizU-39" value="numbers[i][j]" style="shape=parallelogram;perimeter=parallelogramPerimeter;whiteSpace=wrap;html=1;fixedSize=1;" parent="1" vertex="1">
          <mxGeometry x="1355" y="1560" width="120" height="60" as="geometry" />
        </mxCell>
        <mxCell id="A05m5xUNnwHrLR8DmizU-44" value="" style="edgeStyle=orthogonalEdgeStyle;rounded=0;orthogonalLoop=1;jettySize=auto;html=1;" parent="1" source="A05m5xUNnwHrLR8DmizU-41" target="A05m5xUNnwHrLR8DmizU-43" edge="1">
          <mxGeometry relative="1" as="geometry" />
        </mxCell>
        <mxCell id="A05m5xUNnwHrLR8DmizU-53" style="edgeStyle=orthogonalEdgeStyle;rounded=0;orthogonalLoop=1;jettySize=auto;html=1;entryX=1;entryY=0.5;entryDx=0;entryDy=0;" parent="1" source="A05m5xUNnwHrLR8DmizU-41" target="A05m5xUNnwHrLR8DmizU-50" edge="1">
          <mxGeometry relative="1" as="geometry">
            <mxPoint x="1432.5" y="1770" as="targetPoint" />
            <Array as="points">
              <mxPoint x="1433" y="1770" />
            </Array>
          </mxGeometry>
        </mxCell>
        <mxCell id="A05m5xUNnwHrLR8DmizU-41" value="mulNumbers*=numbers[i][j]" style="rounded=0;whiteSpace=wrap;html=1;" parent="1" vertex="1">
          <mxGeometry x="1355" y="1636" width="155" height="60" as="geometry" />
        </mxCell>
        <mxCell id="A05m5xUNnwHrLR8DmizU-42" style="edgeStyle=orthogonalEdgeStyle;rounded=0;orthogonalLoop=1;jettySize=auto;html=1;entryX=0;entryY=0.677;entryDx=0;entryDy=0;entryPerimeter=0;" parent="1" source="A05m5xUNnwHrLR8DmizU-37" target="A05m5xUNnwHrLR8DmizU-41" edge="1">
          <mxGeometry relative="1" as="geometry" />
        </mxCell>
        <mxCell id="A05m5xUNnwHrLR8DmizU-57" style="edgeStyle=orthogonalEdgeStyle;rounded=0;orthogonalLoop=1;jettySize=auto;html=1;" parent="1" source="A05m5xUNnwHrLR8DmizU-43" edge="1">
          <mxGeometry relative="1" as="geometry">
            <mxPoint x="1720" y="1320" as="targetPoint" />
            <Array as="points">
              <mxPoint x="1685" y="1666" />
              <mxPoint x="1720" y="1667" />
            </Array>
          </mxGeometry>
        </mxCell>
        <mxCell id="A05m5xUNnwHrLR8DmizU-43" value="mulNumbers" style="shape=parallelogram;perimeter=parallelogramPerimeter;whiteSpace=wrap;html=1;fixedSize=1;" parent="1" vertex="1">
          <mxGeometry x="1540" y="1636" width="120" height="60" as="geometry" />
        </mxCell>
        <mxCell id="A05m5xUNnwHrLR8DmizU-45" value="true" style="text;html=1;align=center;verticalAlign=middle;resizable=0;points=[];autosize=1;strokeColor=none;fillColor=none;" parent="1" vertex="1">
          <mxGeometry x="1280" y="1608" width="40" height="30" as="geometry" />
        </mxCell>
        <mxCell id="A05m5xUNnwHrLR8DmizU-48" style="edgeStyle=orthogonalEdgeStyle;rounded=0;orthogonalLoop=1;jettySize=auto;html=1;" parent="1" source="A05m5xUNnwHrLR8DmizU-46" edge="1">
          <mxGeometry relative="1" as="geometry">
            <mxPoint x="930" y="1640" as="targetPoint" />
            <Array as="points">
              <mxPoint x="931" y="1520" />
              <mxPoint x="931" y="1640" />
            </Array>
          </mxGeometry>
        </mxCell>
        <mxCell id="A05m5xUNnwHrLR8DmizU-49" style="edgeStyle=orthogonalEdgeStyle;rounded=0;orthogonalLoop=1;jettySize=auto;html=1;" parent="1" source="A05m5xUNnwHrLR8DmizU-46" edge="1">
          <mxGeometry relative="1" as="geometry">
            <mxPoint x="690" y="1640" as="targetPoint" />
          </mxGeometry>
        </mxCell>
        <mxCell id="A05m5xUNnwHrLR8DmizU-46" value="i++&lt;br&gt;j++" style="rounded=0;whiteSpace=wrap;html=1;" parent="1" vertex="1">
          <mxGeometry x="1355" y="1470" width="120" height="60" as="geometry" />
        </mxCell>
        <mxCell id="A05m5xUNnwHrLR8DmizU-54" style="edgeStyle=orthogonalEdgeStyle;rounded=0;orthogonalLoop=1;jettySize=auto;html=1;" parent="1" source="A05m5xUNnwHrLR8DmizU-50" edge="1">
          <mxGeometry relative="1" as="geometry">
            <mxPoint x="930" y="1640" as="targetPoint" />
            <Array as="points">
              <mxPoint x="931" y="1750" />
              <mxPoint x="931" y="1640" />
            </Array>
          </mxGeometry>
        </mxCell>
        <mxCell id="A05m5xUNnwHrLR8DmizU-55" style="edgeStyle=orthogonalEdgeStyle;rounded=0;orthogonalLoop=1;jettySize=auto;html=1;" parent="1" source="A05m5xUNnwHrLR8DmizU-50" edge="1">
          <mxGeometry relative="1" as="geometry">
            <mxPoint x="690" y="1640" as="targetPoint" />
          </mxGeometry>
        </mxCell>
        <mxCell id="A05m5xUNnwHrLR8DmizU-50" value="i++&lt;br&gt;j++" style="rounded=0;whiteSpace=wrap;html=1;" parent="1" vertex="1">
          <mxGeometry x="1115" y="1740" width="120" height="60" as="geometry" />
        </mxCell>
        <mxCell id="A05m5xUNnwHrLR8DmizU-52" value="false" style="text;html=1;align=center;verticalAlign=middle;resizable=0;points=[];autosize=1;strokeColor=none;fillColor=none;" parent="1" vertex="1">
          <mxGeometry x="1180" y="1696" width="50" height="30" as="geometry" />
        </mxCell>
        <mxCell id="A05m5xUNnwHrLR8DmizU-63" value="false" style="text;html=1;align=center;verticalAlign=middle;resizable=0;points=[];autosize=1;strokeColor=none;fillColor=none;" parent="1" vertex="1">
          <mxGeometry x="325" y="1438" width="50" height="30" as="geometry" />
        </mxCell>
        <mxCell id="A05m5xUNnwHrLR8DmizU-82" value="true" style="text;html=1;align=center;verticalAlign=middle;resizable=0;points=[];autosize=1;strokeColor=none;fillColor=none;" parent="1" vertex="1">
          <mxGeometry x="1030" y="1606" width="40" height="30" as="geometry" />
        </mxCell>
        <mxCell id="-H7SbYvp7j1ytzllU2nW-9" value="" style="edgeStyle=orthogonalEdgeStyle;rounded=0;orthogonalLoop=1;jettySize=auto;html=1;" parent="1" source="-H7SbYvp7j1ytzllU2nW-7" target="-H7SbYvp7j1ytzllU2nW-8" edge="1">
          <mxGeometry relative="1" as="geometry" />
        </mxCell>
        <mxCell id="Xp676sc2dcjYZdjnzjJe-21" style="edgeStyle=orthogonalEdgeStyle;rounded=0;orthogonalLoop=1;jettySize=auto;html=1;entryX=0.5;entryY=0;entryDx=0;entryDy=0;" parent="1" source="-H7SbYvp7j1ytzllU2nW-7" target="Xp676sc2dcjYZdjnzjJe-20" edge="1">
          <mxGeometry relative="1" as="geometry" />
        </mxCell>
        <mxCell id="-H7SbYvp7j1ytzllU2nW-7" value="choice==6" style="rhombus;whiteSpace=wrap;html=1;" parent="1" vertex="1">
          <mxGeometry x="340" y="1963" width="80" height="80" as="geometry" />
        </mxCell>
        <mxCell id="-H7SbYvp7j1ytzllU2nW-12" value="" style="edgeStyle=orthogonalEdgeStyle;rounded=0;orthogonalLoop=1;jettySize=auto;html=1;" parent="1" source="-H7SbYvp7j1ytzllU2nW-8" target="-H7SbYvp7j1ytzllU2nW-11" edge="1">
          <mxGeometry relative="1" as="geometry" />
        </mxCell>
        <mxCell id="-H7SbYvp7j1ytzllU2nW-8" value="min=max = numbers[0][0]" style="rounded=0;whiteSpace=wrap;html=1;" parent="1" vertex="1">
          <mxGeometry x="465" y="1973" width="145" height="60" as="geometry" />
        </mxCell>
        <mxCell id="-H7SbYvp7j1ytzllU2nW-10" value="true" style="text;html=1;align=center;verticalAlign=middle;resizable=0;points=[];autosize=1;strokeColor=none;fillColor=none;" parent="1" vertex="1">
          <mxGeometry x="420" y="1973" width="40" height="30" as="geometry" />
        </mxCell>
        <mxCell id="-H7SbYvp7j1ytzllU2nW-14" value="" style="edgeStyle=orthogonalEdgeStyle;rounded=0;orthogonalLoop=1;jettySize=auto;html=1;" parent="1" source="-H7SbYvp7j1ytzllU2nW-11" target="-H7SbYvp7j1ytzllU2nW-13" edge="1">
          <mxGeometry relative="1" as="geometry" />
        </mxCell>
        <mxCell id="-H7SbYvp7j1ytzllU2nW-11" value="i=0" style="rounded=0;whiteSpace=wrap;html=1;" parent="1" vertex="1">
          <mxGeometry x="660" y="1973" width="70" height="60" as="geometry" />
        </mxCell>
        <mxCell id="-H7SbYvp7j1ytzllU2nW-16" value="" style="edgeStyle=orthogonalEdgeStyle;rounded=0;orthogonalLoop=1;jettySize=auto;html=1;" parent="1" source="-H7SbYvp7j1ytzllU2nW-13" target="-H7SbYvp7j1ytzllU2nW-15" edge="1">
          <mxGeometry relative="1" as="geometry" />
        </mxCell>
        <mxCell id="-H7SbYvp7j1ytzllU2nW-13" value="i&amp;lt;n" style="rhombus;whiteSpace=wrap;html=1;" parent="1" vertex="1">
          <mxGeometry x="771" y="1963" width="80" height="80" as="geometry" />
        </mxCell>
        <mxCell id="-H7SbYvp7j1ytzllU2nW-18" value="" style="edgeStyle=orthogonalEdgeStyle;rounded=0;orthogonalLoop=1;jettySize=auto;html=1;" parent="1" source="-H7SbYvp7j1ytzllU2nW-15" target="-H7SbYvp7j1ytzllU2nW-17" edge="1">
          <mxGeometry relative="1" as="geometry" />
        </mxCell>
        <mxCell id="-H7SbYvp7j1ytzllU2nW-15" value="j=0" style="rounded=0;whiteSpace=wrap;html=1;" parent="1" vertex="1">
          <mxGeometry x="900.5" y="1973" width="79" height="60" as="geometry" />
        </mxCell>
        <mxCell id="-H7SbYvp7j1ytzllU2nW-20" value="" style="edgeStyle=orthogonalEdgeStyle;rounded=0;orthogonalLoop=1;jettySize=auto;html=1;" parent="1" source="-H7SbYvp7j1ytzllU2nW-17" target="-H7SbYvp7j1ytzllU2nW-19" edge="1">
          <mxGeometry relative="1" as="geometry" />
        </mxCell>
        <mxCell id="Xp676sc2dcjYZdjnzjJe-7" style="edgeStyle=orthogonalEdgeStyle;rounded=0;orthogonalLoop=1;jettySize=auto;html=1;entryX=0;entryY=0.5;entryDx=0;entryDy=0;" parent="1" source="-H7SbYvp7j1ytzllU2nW-17" target="Xp676sc2dcjYZdjnzjJe-6" edge="1">
          <mxGeometry relative="1" as="geometry" />
        </mxCell>
        <mxCell id="-H7SbYvp7j1ytzllU2nW-17" value="j&amp;lt;m" style="rhombus;whiteSpace=wrap;html=1;" parent="1" vertex="1">
          <mxGeometry x="1031" y="1963" width="80" height="80" as="geometry" />
        </mxCell>
        <mxCell id="Xp676sc2dcjYZdjnzjJe-2" value="" style="edgeStyle=orthogonalEdgeStyle;rounded=0;orthogonalLoop=1;jettySize=auto;html=1;" parent="1" source="-H7SbYvp7j1ytzllU2nW-19" target="Xp676sc2dcjYZdjnzjJe-1" edge="1">
          <mxGeometry relative="1" as="geometry" />
        </mxCell>
        <mxCell id="-H7SbYvp7j1ytzllU2nW-19" value="min&gt;numbers[i][j]" style="rhombus;whiteSpace=wrap;html=1;" parent="1" vertex="1">
          <mxGeometry x="1200.5" y="1910" width="129" height="80" as="geometry" />
        </mxCell>
        <mxCell id="Xp676sc2dcjYZdjnzjJe-12" style="edgeStyle=orthogonalEdgeStyle;rounded=0;orthogonalLoop=1;jettySize=auto;html=1;entryX=0;entryY=0.5;entryDx=0;entryDy=0;" parent="1" source="Xp676sc2dcjYZdjnzjJe-1" target="Xp676sc2dcjYZdjnzjJe-11" edge="1">
          <mxGeometry relative="1" as="geometry" />
        </mxCell>
        <mxCell id="Xp676sc2dcjYZdjnzjJe-1" value="min = numbers[i][j]" style="rounded=0;whiteSpace=wrap;html=1;" parent="1" vertex="1">
          <mxGeometry x="1372.5" y="1920" width="120" height="60" as="geometry" />
        </mxCell>
        <mxCell id="Xp676sc2dcjYZdjnzjJe-3" value="true" style="text;html=1;align=center;verticalAlign=middle;resizable=0;points=[];autosize=1;strokeColor=none;fillColor=none;" parent="1" vertex="1">
          <mxGeometry x="851" y="1973" width="40" height="30" as="geometry" />
        </mxCell>
        <mxCell id="Xp676sc2dcjYZdjnzjJe-4" value="true" style="text;html=1;align=center;verticalAlign=middle;resizable=0;points=[];autosize=1;strokeColor=none;fillColor=none;" parent="1" vertex="1">
          <mxGeometry x="1111" y="1973" width="40" height="30" as="geometry" />
        </mxCell>
        <mxCell id="Xp676sc2dcjYZdjnzjJe-5" value="true" style="text;html=1;align=center;verticalAlign=middle;resizable=0;points=[];autosize=1;strokeColor=none;fillColor=none;" parent="1" vertex="1">
          <mxGeometry x="1324" y="1960" width="40" height="30" as="geometry" />
        </mxCell>
        <mxCell id="Xp676sc2dcjYZdjnzjJe-9" value="" style="edgeStyle=orthogonalEdgeStyle;rounded=0;orthogonalLoop=1;jettySize=auto;html=1;" parent="1" source="Xp676sc2dcjYZdjnzjJe-6" target="Xp676sc2dcjYZdjnzjJe-8" edge="1">
          <mxGeometry relative="1" as="geometry" />
        </mxCell>
        <mxCell id="Xp676sc2dcjYZdjnzjJe-6" value="max&amp;lt;numbers[i][j]" style="rhombus;whiteSpace=wrap;html=1;" parent="1" vertex="1">
          <mxGeometry x="1200.5" y="2043" width="129.5" height="80" as="geometry" />
        </mxCell>
        <mxCell id="Xp676sc2dcjYZdjnzjJe-13" style="edgeStyle=orthogonalEdgeStyle;rounded=0;orthogonalLoop=1;jettySize=auto;html=1;entryX=0;entryY=0.5;entryDx=0;entryDy=0;" parent="1" source="Xp676sc2dcjYZdjnzjJe-8" target="Xp676sc2dcjYZdjnzjJe-11" edge="1">
          <mxGeometry relative="1" as="geometry" />
        </mxCell>
        <mxCell id="Xp676sc2dcjYZdjnzjJe-8" value="max = numbers[i][j]" style="rounded=0;whiteSpace=wrap;html=1;" parent="1" vertex="1">
          <mxGeometry x="1372.5" y="2053" width="120" height="60" as="geometry" />
        </mxCell>
        <mxCell id="Xp676sc2dcjYZdjnzjJe-10" value="true" style="text;html=1;align=center;verticalAlign=middle;resizable=0;points=[];autosize=1;strokeColor=none;fillColor=none;" parent="1" vertex="1">
          <mxGeometry x="1335" y="2053" width="40" height="30" as="geometry" />
        </mxCell>
        <mxCell id="Xp676sc2dcjYZdjnzjJe-14" style="edgeStyle=orthogonalEdgeStyle;rounded=0;orthogonalLoop=1;jettySize=auto;html=1;entryX=0.5;entryY=0;entryDx=0;entryDy=0;" parent="1" source="Xp676sc2dcjYZdjnzjJe-11" target="-H7SbYvp7j1ytzllU2nW-13" edge="1">
          <mxGeometry relative="1" as="geometry">
            <mxPoint x="810" y="1880" as="targetPoint" />
            <Array as="points">
              <mxPoint x="1621" y="1880" />
              <mxPoint x="811" y="1880" />
            </Array>
          </mxGeometry>
        </mxCell>
        <mxCell id="Xp676sc2dcjYZdjnzjJe-15" style="edgeStyle=orthogonalEdgeStyle;rounded=0;orthogonalLoop=1;jettySize=auto;html=1;entryX=0.5;entryY=1;entryDx=0;entryDy=0;" parent="1" source="Xp676sc2dcjYZdjnzjJe-11" target="-H7SbYvp7j1ytzllU2nW-17" edge="1">
          <mxGeometry relative="1" as="geometry">
            <mxPoint x="1070" y="2140" as="targetPoint" />
            <Array as="points">
              <mxPoint x="1620" y="2140" />
              <mxPoint x="1071" y="2140" />
            </Array>
          </mxGeometry>
        </mxCell>
        <mxCell id="Xp676sc2dcjYZdjnzjJe-17" value="" style="edgeStyle=orthogonalEdgeStyle;rounded=0;orthogonalLoop=1;jettySize=auto;html=1;" parent="1" source="Xp676sc2dcjYZdjnzjJe-11" target="Xp676sc2dcjYZdjnzjJe-16" edge="1">
          <mxGeometry relative="1" as="geometry" />
        </mxCell>
        <mxCell id="Xp676sc2dcjYZdjnzjJe-11" value="i++&lt;br&gt;j++" style="rounded=0;whiteSpace=wrap;html=1;" parent="1" vertex="1">
          <mxGeometry x="1560" y="1983" width="120" height="60" as="geometry" />
        </mxCell>
        <mxCell id="Xp676sc2dcjYZdjnzjJe-18" style="edgeStyle=orthogonalEdgeStyle;rounded=0;orthogonalLoop=1;jettySize=auto;html=1;" parent="1" source="Xp676sc2dcjYZdjnzjJe-16" edge="1">
          <mxGeometry relative="1" as="geometry">
            <mxPoint x="380" y="320" as="targetPoint" />
            <Array as="points">
              <mxPoint x="1920" y="2013" />
            </Array>
          </mxGeometry>
        </mxCell>
        <mxCell id="Xp676sc2dcjYZdjnzjJe-16" value="max&lt;br&gt;min" style="shape=parallelogram;perimeter=parallelogramPerimeter;whiteSpace=wrap;html=1;fixedSize=1;" parent="1" vertex="1">
          <mxGeometry x="1720" y="1983" width="120" height="60" as="geometry" />
        </mxCell>
        <mxCell id="Xp676sc2dcjYZdjnzjJe-23" value="" style="edgeStyle=orthogonalEdgeStyle;rounded=0;orthogonalLoop=1;jettySize=auto;html=1;" parent="1" source="Xp676sc2dcjYZdjnzjJe-20" target="Xp676sc2dcjYZdjnzjJe-22" edge="1">
          <mxGeometry relative="1" as="geometry" />
        </mxCell>
        <mxCell id="Xp676sc2dcjYZdjnzjJe-28" value="" style="edgeStyle=orthogonalEdgeStyle;rounded=0;orthogonalLoop=1;jettySize=auto;html=1;" parent="1" source="Xp676sc2dcjYZdjnzjJe-20" target="Xp676sc2dcjYZdjnzjJe-27" edge="1">
          <mxGeometry relative="1" as="geometry" />
        </mxCell>
        <mxCell id="Xp676sc2dcjYZdjnzjJe-20" value="choice==8" style="rhombus;whiteSpace=wrap;html=1;" parent="1" vertex="1">
          <mxGeometry x="340" y="2200" width="80" height="80" as="geometry" />
        </mxCell>
        <mxCell id="Xp676sc2dcjYZdjnzjJe-22" value="end" style="ellipse;whiteSpace=wrap;html=1;" parent="1" vertex="1">
          <mxGeometry x="480" y="2200" width="120" height="80" as="geometry" />
        </mxCell>
        <mxCell id="Xp676sc2dcjYZdjnzjJe-24" value="true" style="text;html=1;align=center;verticalAlign=middle;resizable=0;points=[];autosize=1;strokeColor=none;fillColor=none;" parent="1" vertex="1">
          <mxGeometry x="425" y="2210" width="40" height="30" as="geometry" />
        </mxCell>
        <mxCell id="Xp676sc2dcjYZdjnzjJe-26" value="false" style="text;html=1;align=center;verticalAlign=middle;resizable=0;points=[];autosize=1;strokeColor=none;fillColor=none;" parent="1" vertex="1">
          <mxGeometry x="285" y="2208" width="50" height="30" as="geometry" />
        </mxCell>
        <mxCell id="Xp676sc2dcjYZdjnzjJe-30" style="edgeStyle=orthogonalEdgeStyle;rounded=0;orthogonalLoop=1;jettySize=auto;html=1;" parent="1" source="Xp676sc2dcjYZdjnzjJe-27" edge="1">
          <mxGeometry relative="1" as="geometry">
            <mxPoint x="380" y="330" as="targetPoint" />
            <Array as="points">
              <mxPoint x="218" y="330" />
            </Array>
          </mxGeometry>
        </mxCell>
        <mxCell id="Xp676sc2dcjYZdjnzjJe-27" value="Vui long nhap tu 1-9" style="shape=parallelogram;perimeter=parallelogramPerimeter;whiteSpace=wrap;html=1;fixedSize=1;" parent="1" vertex="1">
          <mxGeometry x="150" y="2210" width="135" height="60" as="geometry" />
        </mxCell>
      </root>
    </mxGraphModel>
  </diagram>
</mxfile>
